<svg height="20" viewBox="0 0 27 20" width="27" xmlns="http://www.w3.org/2000/svg"><g fill="#5d5d5d"><path d="m26.6414634 5.91365854c-3.5331707-3.53365854-8.2390244-5.4795122-13.2492683-5.4795122-5.01024388 0-9.71560973 1.94536586-13.24926827 5.4795122-.19073171.1907317-.19073171.49902439 0 .68975609.19073171.19073171.49902439.19073171.6897561 0 3.34926829-3.34975609 7.80975609-5.19414634 12.55951217-5.19414634 4.7497561 0 9.2102439 1.84439025 12.5595122 5.19365854.095122.09512195.22.14292683.3448781.14292683.124878 0 .2497561-.04780488.344878-.14292683.1907317-.1902439.1907317-.49902439 0-.68926829z"/><path d="m3.0102439 8.7804878c-.1907317.19073171-.1907317.4990244 0 .6897561.09512195.09512195.22.14292683.34487805.14292683s.2497561-.04780488.34487805-.14292683c5.34390244-5.34439024 14.0395122-5.34439024 19.3839024 0 .1907317.19073171.4990244.19073171.6897561 0 .1907317-.1907317.1907317-.49902439 0-.6897561-5.7239024-5.72390243-15.03853655-5.72487804-20.7634146 0z"/><path d="m13.3921951 8.5404878c-2.8414634 0-5.50975608 1.10390244-7.51414632 3.1078049-.19073171.1907317-.19073171.4990244 0 .6897561s.49902439.1907317.6897561 0c1.82-1.8195122 4.24341462-2.82195124 6.82439022-2.82195124s5.0043903 1.00243904 6.8243903 2.82195124c.0951219.0951219.22.1429268.344878.1429268.1248781 0 .2497561-.0478049.3448781-.1429268.1907317-.1907317.1907317-.4990244 0-.6897561-2.0039025-2.00390246-4.672683-3.1078049-7.5141464-3.1078049z"/><path d="m13.3921951 13.1297561c-1.7619512 0-3.1956097 1.4336585-3.1956097 3.1960976 0 1.762439 1.4336585 3.1960975 3.1956097 3.1960975 1.762439 0 3.1960976-1.4336585 3.1960976-3.1960975 0-1.7624391-1.4336586-3.1960976-3.1960976-3.1960976zm0 5.4160976c-1.2243902 0-2.22-.9960976-2.22-2.2204878 0-1.2243903.9960976-2.2204879 2.22-2.2204879 1.2239025 0 2.2204878.9960976 2.2204878 2.2204879 0 1.2243902-.9960975 2.2204878-2.2204878 2.2204878z"/></g></svg>