<svg height="20" viewBox="0 0 15 20" width="15" xmlns="http://www.w3.org/2000/svg"><g fill="#5d5d5d"><path d="m7.40234375 13.515625c-.215625 0-.390625.175-.390625.390625s.175.390625.390625.390625.390625-.175.390625-.390625-.175-.390625-.390625-.390625z"/><path d="m6.07914063 13.1733594c-.87042969-.4835547-1.41117188-1.4001563-1.41117188-2.3921094 0-.2157422-.17488281-.390625-.390625-.390625s-.390625.1748828-.390625.390625c0 1.2755078.69472656 2.4538281 1.81304688 3.0750781.06007812.0333594.12515625.0492188.18933593.0492188.13726563 0 .27042969-.0725.34183594-.2010157.10476563-.1885937.03679688-.4264062-.15179687-.5311718z"/><path d="m13.671875 0h-3.90625c-.19105469 0-.3540625.13820313-.38535156.32667969l-.59394531 3.57957031h-.20703126c-.08085937-.99664062-.50449218-1.92242187-1.21371093-2.63683594-.80535156-.81160156-1.88464844-1.26207031-3.04-1.26898437-.0021875-.00007813-.004375-.00003906-.0065625-.00007813-.00089844 0-.00175781-.00011718-.00265625-.00011718-.00050782 0-.00097656.00007812-.00144532.00007812-.0059375-.00015625-.011875-.0003125-.01804687-.0003125-1.15238281 0-2.2359375.45855469-3.05085938 1.29101562-.79160156.80765625-1.23386718 1.87246094-1.24558593 2.99859375-.00003906.00097657 0 .00191407-.00003906.00289063 0 .00148437-.00023438.00289062-.00023438.004375 0 .00101562.00015625.00199219.00015625.00296875-.00015625.01207031-.0003125.02417969-.0003125.03609375 0 1.14769531.44695313 2.22671875 1.25855469 3.03832031 0 0 .00003906 0 .00003906.00003907.40207031.40210937.88394531.72207031 1.40714844.93730468-.06003907.21152344-.11179688.41894531-.15515625.62683594-.12074219.57746094-.1815625 1.1569531-.1859375 1.7678906-.00042969.0248438-.00042969.0501172-.00042969.0749219 0 1.3567187.52828125 2.6319141 1.48738281 3.5905859.67628906.6766016 1.51015625 1.1384375 2.41886719 1.3520703v3.4948438h-2.734375c-.21574219 0-.390625.1749219-.390625.390625s.17488281.390625.390625.390625h7.81250005c.2157421 0 .390625-.1749219.390625-.390625s-.1748829-.390625-.390625-.390625h-2.73437505v-3.4960938c2.23699215-.5304687 3.90625005-2.5445312 3.90625005-4.9414062v-.0296875c-.0015626-.5282422-.0514063-1.12113281-.139961-1.68257813.0017578-.01496093.0028906-.03011718.0028906-.04558593 0-.06019532-.0140234-.11699219-.0383203-.16789063-.0700781-.39511719-.1573437-.75863281-.2601953-1.08109375l-1.1453125-3.59609375c-.0516016-.16203125-.2021094-.27207031-.3721875-.27207031h-.94910155l.51851565-3.125h3.5750781c.2157422 0 .390625-.17488281.390625-.390625s-.1748828-.390625-.390625-.390625zm-5.87703125 3.90625h-2.50132813l1.77835938-1.79101562c.40765625.51589843.65742187 1.13308593.72296875 1.79101562zm-3.0878125-3.10117187c.67027344.07527343 1.295625.33531249 1.81523438.75488281l-1.81523438 1.82808593zm-.13925781 3.88242187h4.08890625l-.65464844 3.9453125h-4.61480469c.03519532-.1303125.07359375-.26199219.11660157-.39707031.00074218-.00226563.00140625-.00457031.00210937-.00683594zm-.64199219-3.88613281v2.61101562l-1.83609375-1.83609375c.52863281-.43570312 1.16171875-.70304687 1.83609375-.77492187zm-2.38207031 1.33386718 1.77101562 1.77101563h-2.50675781c.07792969-.64710938.33117188-1.25675781.73574219-1.77101563zm-.74515625 2.55226563h2.60917968c-.02519531.01558594-.04917968.03398438-.07105468.05585938l-1.78628906 1.78660156c-.42515626-.53011719-.68503907-1.16542969-.75183594-1.84246094zm1.30421875 2.39492187 1.33019531-1.33046875-.54179688 1.806875c-.28148437-.12316406-.54730468-.28382812-.78839843-.47640625zm5.69019531 12.13632813h-.78125v-3.359375h.78125zm3.90628905-8.4660156v.0285156h-.000039c0 2.3692969-1.92757818 4.296875-4.29687505 4.296875-1.14796875 0-2.22695312-.4469531-3.03832031-1.2587109-.81160156-.811211-1.25855469-1.8901954-1.25855469-3.0381641 0-.0204687 0-.0413281.00039062-.0655469.00324219-.4499609.04-.87855466.11070313-1.3016406h5.11574219c.00046875 0 .0009375.00003906.00140625.00003906.00042969 0 .00085937-.00003906.00128906-.00003906h3.2666797c.0617969.4540625.0963281.919375.0975781 1.3386719zm-1.4574609-6.0652344 1.0587109 3.32417969c.0598438.18757812.1151953.39777343.1642578.62113281h-2.67074216l.65464844-3.9453125z"/></g></svg>