<svg height="20" viewBox="0 0 24 20" width="24" xmlns="http://www.w3.org/2000/svg"><g fill="#5d5d5d"><path d="m21.9451372 0h-19.95012473c-1.10134818.00136378-1.99364869.89366429-1.99501247 1.99501247v4.78802992c.00136378 1.10134818.89366429 1.99364868 1.99501247 1.99501247h19.95012473c1.1013481-.00136379 1.9936486-.89366429 1.9950124-1.99501247v-4.78802992c-.0013638-1.10134818-.8936643-1.99364869-1.9950124-1.99501247zm1.1970074 6.78304239c0 .6610427-.5359647 1.19700749-1.1970074 1.19700749h-19.95012473c-.66104269 0-1.19700748-.53596479-1.19700748-1.19700749v-4.78802992c0-.66104269.53596479-1.19700748 1.19700748-1.19700748h19.95012473c.6610427 0 1.1970074.53596479 1.1970074 1.19700748z"/><path d="m21.9451372 1.59600998h-2.394015c-.2203476 0-.3990025.17865491-.3990025.39900249v1.59600997c0 .22034758.1786549.3990025.3990025.3990025h2.394015c.2203475 0 .3990025-.17865492.3990025-.3990025v-1.59600997c0-.22034758-.178655-.39900249-.3990025-.39900249zm-.3990025 1.59600997h-1.59601v-.79800499h1.59601z"/><path d="m17.1571072 3.19201995h.798005c.2203476 0 .3990025-.17865491.3990025-.39900249s-.1786549-.3990025-.3990025-.3990025h-.798005c-.2203475 0-.3990025.17865492-.3990025.3990025s.178655.39900249.3990025.39900249z"/><path d="m14.7630923 3.19201995h.798005c.2203475 0 .3990025-.17865491.3990025-.39900249s-.178655-.3990025-.3990025-.3990025h-.798005c-.2203476 0-.3990025.17865492-.3990025.3990025s.1786549.39900249.3990025.39900249z"/><path d="m21.9451372 4.78802993h-19.95012473c-.22034758 0-.39900249.17865491-.39900249.39900249s.17865491.39900249.39900249.39900249h19.95012473c.2203475 0 .3990025-.17865491.3990025-.39900249s-.178655-.39900249-.3990025-.39900249z"/><path d="m21.9451372 6.3840399h-19.95012473c-.22034758 0-.39900249.17865491-.39900249.39900249 0 .22034759.17865491.3990025.39900249.3990025h19.95012473c.2203475 0 .3990025-.17865491.3990025-.3990025 0-.22034758-.178655-.39900249-.3990025-.39900249z"/><path d="m1.99501247 3.19201995h1.19700748c.22034758 0 .39900249-.17865491.39900249-.39900249s-.17865491-.3990025-.39900249-.3990025h-1.19700748c-.22034758 0-.39900249.17865492-.39900249.3990025s.17865491.39900249.39900249.39900249z"/><path d="m5.41049721 13.9685941c1.03413341-1.2614946.58642454-3.5750467.56655237-3.670706-.04948569-.2092425-.25580579-.34172381-.46660694-.29964152-.21080114.04227712-.35029611.24392142-.31542239.45608632.11241426.5632404.26009197 2.2032809-.40173003 3.0104427-.29944673.3471789-.74501246.5326527-1.20226778.5003117-.76839152 0-1.32461815-.2752883-1.52587281-.7557279-.12780549-.2665212-.08708699-.5835021.10384194-.80911.25171446-.1973582.59850374-.2209321.87457142-.0594218.2047615.0818267.43718823-.0175343.51920978-.2222958.08182668-.2047615-.01753432-.4371883-.22229586-.5192098-.57356609-.2908744-1.26733945-.1946306-1.73998594.2413887-.41478334.4555019-.52135287 1.1128429-.27139182 1.6758884.32672225.7808604 1.17226464 1.2464932 2.26192329 1.2464932.69728025.0344841 1.37059696-.2595075 1.81947477-.7944982z"/><path d="m8.76733945 10.2826917c-.02922379-.1424174-.13345541-.2575592-.27217112-.30081045-.13871571-.04325127-.29009506-.00759821-.39491117.09293175-.10481606.1005299-.14670354.2501558-.10949187.390625.01091022.0453943 1.01913187 4.5446929-3.01998913 7.1545745-.12371412.0753974-.19677367.2121649-.19092888.3569202.00603955.1447553.09000933.2750935.21956823.3401652.12955895.0650717.28405551.0547459.40387317-.0268859 4.50709162-2.9122507 3.37476618-7.9560864 3.36405077-8.0075203z"/><path d="m10.7124766 9.97993297c-.2178148.03350993-.3670511.23710253-.3335411.45472263.0074034.0502649.7424797 5.0730595-1.92760288 8.8877415-.08689217.1167005-.10364713.2713919-.04344609.4036783.06020105.1324813.18761691.2215166.33256704.2328164.14514493.0111051.28463995-.0574734.36432354-.1790445 2.85204959-4.0743844 2.09651659-9.2481687 2.06242209-9.4663732-.03351-.2178148-.2371025-.36705111-.4547226-.33354113z"/><path d="m2.39401496 15.9600998c-.66104269 0-1.19700748.5359647-1.19700748 1.1970074s.53596479 1.1970075 1.19700748 1.1970075c.6610427 0 1.19700748-.5359648 1.19700748-1.1970075s-.53596478-1.1970074-1.19700748-1.1970074zm0 1.5960099c-.22034758 0-.39900249-.1786549-.39900249-.3990025 0-.2203475.17865491-.3990025.39900249-.3990025s.3990025.178655.3990025.3990025c0 .2203476-.17865492.3990025-.3990025.3990025z"/><path d="m22.6110505 13.5177681c.2854193-.5710334.1650171-1.2614947-.2971088-1.7021898-.4619311-.4405004-1.1572631-.5283666-1.714269-.2162563-.2047615.0820215-.3041225.3144483-.2222958.5192098.0820215.2047615.3144482.3041225.5192097.2222958.2760677-.1615103.622857-.1379364.8745715.0594218.1909289.2256079.2316474.5425888.1038419.80911-.2012547.4804396-.7574813.7557279-1.5258728.7557279-.4570605.0317565-.9022366-.154107-1.2014885-.501091-.7954722-.9688669-.4060162-2.9925187-.4021197-3.0121961.0434461-.2160614-.0962437-.4264729-.3123051-.46991895-.2162563-.0436409-.4266678.09624375-.4701139.31230515-.0198721.0978024-.467581 2.4111596.5665524 3.6709009.4480985.5361596 1.1214152.8315149 1.8194748.798005 1.0896586 0 1.935201-.4656328 2.2619233-1.2453242z"/><path d="m15.9536705 10.4451761c.0393547-.2168407-.1044264-.4245246-.3212671-.46387934-.2168408-.03935472-.4245246.10442644-.4638794.32126714-.0342893.1887858-.7880689 4.6631468 3.7311019 8.3603491.1100764.0929318.2616506.1192332.3964698.0689682.135014-.0502649.2324267-.1693032.2548317-.3115258.0225997-.1422226-.0333152-.2856142-.1463139-.375039-4.12952-3.3788575-3.462048-7.5356531-3.450943-7.6001403z"/><path d="m13.5660848 10.4015352c.0151964-.2203476-.1511846-.41127645-.3715321-.42647286-.2203476-.0151964-.4112765.15118456-.4264729.37153216-.0140274.1995012-.3275015 4.9168095.8932746 7.7657419.0629286.1467035.2074891.2419731.367246.2417783.0539666.0001948.1073488-.0109102.1566396-.032341.2026185-.0868922.2963295-.3212672.2096322-.5238856-1.1436253-2.6704722-.8332684-7.3488155-.8287874-7.3963529z"/><path d="m21.9451372 17.5561097c-.6610427 0-1.1970075.5359648-1.1970075 1.1970075s.5359648 1.1970075 1.1970075 1.1970075 1.1970074-.5359648 1.1970074-1.1970075-.5359647-1.1970075-1.1970074-1.1970075zm0 1.59601c-.2203476 0-.3990025-.1786549-.3990025-.3990025s.1786549-.3990025.3990025-.3990025c.2203475 0 .3990025.1786549.3990025.3990025s-.178655.3990025-.3990025.3990025z"/></g></svg>