<svg height="20" viewBox="0 0 25 20" width="25" xmlns="http://www.w3.org/2000/svg"><g fill="#5d5d5d"><path d="m13.0342243 13.8494988h6.5170883c.2443915 0 .4073032-.1629117.4073032-.4073031v-3.66587112c0-.24439141-.1629117-.4073031-.4073032-.4073031h-6.5170883c-.2443914 0-.4073031.16291169-.4073031.4073031v3.66587112c-.0000477.2443437.1629117.4073031.4073031.4073031zm.4073031-3.6658711h5.7024821v2.8512172h-5.7024821z"/><path d="m2.03661098 8.55431981h3.25856802c.24439141 0 .4073031-.1629117.4073031-.4073031 0-.24439141-.16291169-.40730311-.4073031-.40730311h-3.25856802c-.24439141 0-.4073031.1629117-.4073031.40730311 0 .2443914.16291169.4073031.4073031.4073031z"/><path d="m6.92443914 8.55431981h3.25856806c.2443914 0 .4073031-.1629117.4073031-.4073031 0-.24439141-.1629117-.40730311-.4073031-.40730311h-3.25856806c-.24439141 0-.4073031.1629117-.4073031.40730311 0 .2443914.16291169.4073031.4073031.4073031z"/><path d="m2.03661098 10.1836277h5.29513126c.24439141 0 .40730311-.1629117.40730311-.40730312 0-.24439141-.1629117-.4073031-.40730311-.4073031h-5.29513126c-.24439141 0-.4073031.16291169-.4073031.4073031 0 .24439142.16291169.40730312.4073031.40730312z"/><path d="m10.1829594 9.36897375h-1.22195701c-.24439141 0-.40730311.16291169-.40730311.4073031 0 .24439145.1629117.40730315.40730311.40730315h1.22195701c.2443914 0 .4073031-.1629117.4073031-.40730315 0-.24439141-.1629117-.4073031-.4073031-.4073031z"/><path d="m24.0725537 4.31823389c-.2851074-.36658711-.6516945-.57026253-1.0997613-.61097852l-.9775657-.11847255v-1.14424821-.81460621c0-.89608592-.7331742-1.62926014-1.6292601-1.62926014h-18.73670646c-.89608592-.00004773-1.62926014.73312649-1.62926014 1.62926014v.81465394 3.25856802 8.96100234c0 .7357041.49436754 1.3612411 1.16720764 1.5617184-.02052506.8239618.60291169 1.539284 1.43966587 1.61537l18.81813839 2.1180429h.1629117c.814654 0 1.5478282-.6109785 1.6292602-1.3848687l1.221957-13.07494036c.040716-.40735083-.0814797-.85541766-.3665871-1.18124105zm-23.25789976-1.46634845h20.36596656v1.05904535 1.38486873h-20.36596656zm.8146062-2.03661098h18.73665876c.4480668 0 .8146539.36658712.8146539.81465394v.4073031h-20.36591886v-.4073031c0-.44806682.36658711-.81465394.8146062-.81465394zm-.8146062 13.84883054v-8.55369927h20.36596656v8.55369927c0 .4480668-.3665871.8146539-.8146539.8146539h-18.69594273-.04071599c-.44806683 0-.81465394-.3665871-.81465394-.8146539zm22.80983296-9.32758949-1.2219571 13.07494029c-.040716.4480669-.4480668.7738903-.8960859.7331743l-18.77742242-2.118043c-.4073031-.040716-.69245823-.3665871-.73317422-.7331742h18.37007164c.8960859 0 1.6292601-.7331742 1.6292601-1.6292602v-8.96105007-1.34415275l.9368496.08147971c.2036755 0 .4073031.12219571.5294988.2851074.1222435.1629117.2037232.40730311.1629595.61097852z"/></g></svg>