<svg height="20" viewBox="0 0 20 20" width="20" xmlns="http://www.w3.org/2000/svg"><g fill="#5d5d5d"><path d="m16.6033203 3.493125c-.6280859-.62808594-1.4210156-1.04085937-2.2930859-1.19375-.8520703-.14929687-1.7180469-.04191406-2.504375.310625-.196875.08828125-.2848828.31941406-.1966016.51625.0882031.19683594.3192969.28480469.51625.19664063 1.3225781-.59304688 2.9001172-.30261719 3.9253906.72265625.6640235.66402343 1.0296875 1.546875 1.0296875 2.48589843 0 .9390625-.3657031 1.82191407-1.0297265 2.4859375-1.3707422 1.37074219-3.6010938 1.37070309-4.971836 0-1.0240625-1.0240625-1.31628902-2.54539062-.7444531-3.87574218.0851953-.19816407-.0064062-.42789063-.2046094-.51308594-.19832028-.0853125-.42796871.00640625-.51312496.20460937-.335625.78078125-.43183594 1.63691407-.27820313 2.47578125.15734375.85925782.568125 1.64105469 1.18796879 2.26089844.8376562.83765625 1.9380078 1.25652345 3.0383593 1.25652345 1.1003516 0 2.2006641-.4188281 3.0383204-1.25652345.8116015-.8115625 1.2585546-1.890625 1.2585546-3.03835937 0-1.14773438-.4469531-2.22675782-1.2585156-3.03835938z"/><path d="m11.0960937 3.47929687c-.1516796-.15335937-.3989843-.15472656-.5524218-.00308593l-.0165235.01644531c-.1528125.15226563-.1532812.39957031-.0010156.55242187.0763281.07660157.1765234.11492188.2767188.11492188.0996875 0 .199414-.03796875.275664-.11390625l.0144922-.014375c.1533984-.15167969.1547656-.39902344.0030859-.55242188z"/><path d="m13.5649609 0c-3.5483203 0-6.43507809 2.88675781-6.43507809 6.43507813 0 1.04765624.25769531 2.0878125.74523438 3.00796875.10101562.190625.33738281.26328125.52804687.16230468.190625-.10101562.26328125-.33742187.16230469-.52804687-.42804688-.80792969-.65429688-1.7215625-.65429688-2.64222656-.00003906-3.11753907 2.53625003-5.65382813 5.65378903-5.65382813 3.1175391 0 5.6537891 2.53628906 5.6537891 5.65382813 0 1.31136718-.4591406 2.589375-1.2928906 3.59851567-.0122266.0148046-.0232032.0303125-.0328906.0464062l-3.5108985 4.4979688c-.2317969-.0860547-.4823047-.1332422-.7436719-.1332422h-.3867578c-.0007812 0-.0015625 0-.0023828 0h-.5788672l-1.1133984-2.6226953c-.2816016-.6633594-.9292188-1.0919922-1.64988283-1.0919922h-4.55753906c-.72066406 0-1.36824218.4286328-1.64988281 1.0919922l-1.11339844 2.6226953h-.44347656c-1.1815625-.0000391-2.1428125.96125-2.1428125 2.1428125v1.997539c0 .103711.04125.2031641.11464844.2764453.07324219.073125.17253906.1141797.27597656.1141797h.000625l1.89675781-.0029687c.17007813.5923828.71644531 1.0272656 1.3628125 1.0272656.64640625 0 1.19277344-.4349219 1.36285157-1.0273828h6.24554682c.1701172.5924609.7164844 1.0273828 1.3628907 1.0273828.646289 0 1.192539-.4347266 1.3627734-1.0269922l1.405.0026563h.0007422c.1034375 0 .2026953-.0410547.2759375-.1141407.0733984-.0732812.1146875-.1727343.1146875-.2764843v-1.9975391c0-.6380078-.2805859-1.2114063-.7244531-1.6042969l3.4816797-4.4605078c.0075781-.0097266.0146484-.0196875.0211718-.0299609.9291797-1.1427344 1.4403516-2.58167971 1.4403516-4.05765627 0-3.54832032-2.8867578-6.43507813-6.4350391-6.43507813zm1.2292969 15.8690234h-.8005469l-.2027734-.6342968c.4231641.0473828.788125.289414 1.0033203.6342968zm-6.77527342-4.3577734h1.888125c.40656252 0 .77187502.2417969.93074222.6160156l.9838281 2.3174219h-3.80269532zm-7.23773438 5.0762891c0-.1320313.01925781-.2595313.05445313-.3803516h.5115625c.16894531 0 .30640625.1374609.30640625.3064062 0 .1689454-.13746094.3064063-.30640625.3064063h-.56601563zm2.86957031 2.6312109c-.35113281 0-.63679687-.2856641-.63679687-.6367578 0-.3510938.28566406-.6367578.63679687-.6367578s.63675781.285664.63675781.6367578c.00000001.3510937-.285625.6367578-.63675781.6367578zm3.58691407-1.0274219h-2.22402344c-.17007813-.5924609-.71644532-1.0273828-1.36285157-1.0273828-.64644531 0-1.19285156.4349609-1.36289062 1.0274609l-1.50671875.0024219v-.5926172h.56601563c.59972656 0 1.08765625-.4879296 1.08765625-1.0876562 0-.5725-.44472657-1.0427734-1.00675782-1.0843359.20789063-.12875.45269532-.2033204.7146875-.2033204h5.09488282zm0-3.7466406h-3.80273438l.98382813-2.3174219c.15882812-.3742187.52417968-.6160156.93074218-.6160156h1.88816407zm5.38437502 4.7740625c-.3511328 0-.6367578-.2856641-.6367578-.6367578 0-.3510938.285664-.6367578.6367578-.6367578.3510937 0 .6367968.285664.6367968.6367578 0 .3510937-.285664.6367578-.6367968.6367578zm2.3778906-1.0251172-1.0148828-.001875c-.1699609-.5926953-.7164453-1.0278125-1.3630078-1.0278125-.6464063 0-1.1927735.4349219-1.3628516 1.0273828h-3.24027343v-2.9654297h4.39289063.5560937l.3684375 1.1526563c.0517579.1618359.2021875.2716797.3720704.2716797h1.2915234z"/><path d="m13.8874609 4.27015625h-1.1273047c-.2157421 0-.390625.17488281-.390625.390625v1.12730469 1.12734375 1.61582031c0 .21574219.1748829.390625.390625.390625.2157422 0 .390625-.17488281.390625-.390625v-1.22519531h.7366797c.8369922 0 1.5179688-.68097657 1.5179688-1.51796875 0-.83699219-.6809766-1.51792969-1.5179688-1.51792969zm0 2.25464844h-.7366797v-.73671875-.73667969h.7366797c.406211 0 .7367188.33046875.7367188.73667969s-.3304688.73671875-.7367188.73671875z"/><path d="m6.08613281 16.1206641c-.21574218 0-.390625.1748828-.390625.390625v.0046093c0 .2157422.17488282.390625.390625.390625.21574219 0 .390625-.1748828.390625-.390625v-.0046093c0-.2157422-.17488281-.390625-.390625-.390625z"/></g></svg>