<svg height="20" viewBox="0 0 20 20" width="20" xmlns="http://www.w3.org/2000/svg"><g fill="#5d5d5d"><path d="m19.151759 9.72632653h-5.2573372-3.2295044l8.3741885-8.79293877c.1502041-.15771429.1502041-.39428572 0-.55204082-.1502041-.15771429-.3755102-.15771429-.5257531 0l-8.89990285 9.34497959h-9.23793975c-.22530612 0-.3755102.15771429-.3755102.39428567v2.365796c0 .2365714.15020408.3942857.3755102.3942857h6.23370263l-6.12104956 6.4271428c-.15020409.1577143-.15020409.3942857 0 .5520409.07510204.0788571.15020408.1182857.26285714.1182857s.1877551-.0394286.26285714-.1182857l6.64680272-6.9791429h6.23370263 5.2573372c.2253061 0 .3755102-.1577143.3755102-.3942857v-2.3657959c.0000778-.23661228-.1501652-.39432657-.3754713-.39432657zm-18.40069972 2.36579587v-1.5772244h8.11133139l-1.50211856 1.5772244zm9.16279883-1.5772244h3.60505349v1.5772244h-5.10717205zm8.86239069 1.5772244h-4.5063168v-1.5772244h4.5063168z"/><path d="m.75105928 9.09542857c.22530612 0 .3755102-.15771428.3755102-.39428571 0-1.85322449.82616133-3.31212245 1.87762877-3.31212245h1.87762877c.1877551 0 .33795918-.11828572.3755102-.31542857.03755102-.15771429-.03755102-.31542857-.15020408-.39428572-.37551021-.31542857-.6008552-.74918367-.6008552-1.2617551 0-.86746939.67595724-1.57718367 1.50207969-1.57718367.22530612 0 .3755102-.15771429.3755102-.39428572s-.15020408-.39428571-.3755102-.39428571c-1.23922255 0-2.25313897 1.06461224-2.25313897 2.36579592 0 .43371428.11265306.82804081.30040816 1.18289796h-1.05142857c-1.50207969 0-2.62868805 1.77436734-2.62868805 4.10073469 0 .2364898.15024296.39420408.37554908.39420408z"/><path d="m6.9847619.77567347c.56330418.276.90126337.82804082.90126337 1.45889796 0 .86746939-.67595724 1.57722449-1.50207969 1.57722449-.22530612 0-.37551021.15771428-.37551021.39428571 0 .19714286.11265307.35485715.26285715.39428572.26285714.07885714.48816326.43371428.48816326.78861224 0 .43371429-.33795918.78861225-.75105928.78861225h-2.25313897c-1.08901846 0-1.87762876 1.06461224-1.87762876 2.5235102 0 .23657143.15020408.39428572.3755102.39428572s.3755102-.15771429.3755102-.39428572c0-.9857551.48820214-1.73493877 1.12656949-1.73493877h2.25313897c.82616132 0 1.50211856-.70975511 1.50211856-1.57722449 0-.31542858-.11265306-.67032654-.30040816-.94632654.82616132-.35485714 1.42697765-1.22232653 1.42697765-2.20808163 0-.94632653-.52571429-1.77436734-1.35187561-2.16865306-.1877551-.07885714-.41306123 0-.48816327.19714286s0 .43379592.1877551.51265306z"/></g></svg>