<svg height="20" viewBox="0 0 20 20" width="20" xmlns="http://www.w3.org/2000/svg"><g fill="#5d5d5d"><path d="m18.3333333 2.66666667h-.3333333v-1.66666667c0-.55133333-.4486667-1-1-1h-.6666667c-.5513333 0-1 .44866667-1 1v1.66666667h-10.66666663v-1.66666667c0-.55133333-.44866667-1-1-1h-.66666667c-.55133333 0-1 .44866667-1 1v1.66666667h-.33333333c-.919 0-1.66666667.74766666-1.66666667 1.66666666v13.99999997c0 .919.74766667 1.6666667 1.66666667 1.6666667h16.66666663c.919 0 1.6666667-.7476667 1.6666667-1.6666667v-13.99999997c0-.919-.7476667-1.66666666-1.6666667-1.66666666zm-2.3333333.33333333v-2c0-.184.1493333-.33333333.3333333-.33333333h.6666667c.184 0 .3333333.14933333.3333333.33333333v2 1.33333333c0 .184-.1493333.33333334-.3333333.33333334h-.6666667c-.184 0-.3333333-.14933334-.3333333-.33333334zm-13.33333333 0v-2c0-.184.14933333-.33333333.33333333-.33333333h.66666667c.184 0 .33333333.14933333.33333333.33333333v2 1.33333333c0 .184-.14933333.33333334-.33333333.33333334h-.66666667c-.184 0-.33333333-.14933334-.33333333-.33333334zm16.66666663 15.3333333c0 .5513334-.4486666 1-1 1h-16.66666663c-.55133334 0-1-.4486666-1-1v-9.66666663h18.66666663zm0-10.3333333h-18.66666663v-3.66666667c0-.55133333.44866666-1 1-1h.33333333v1c0 .55133334.44866667 1 1 1h.66666667c.55133333 0 1-.44866666 1-1v-1h10.66666663v1c0 .55133334.4486667 1 1 1h.6666667c.5513333 0 1-.44866666 1-1v-1h.3333333c.5513334 0 1 .44866667 1 1z"/><path d="m6.83333333 11h-2c-.18433333 0-.33333333.149-.33333333.3333333v1.6666667c0 .1843333.149.3333333.33333333.3333333h2c.18433334 0 .33333334-.149.33333334-.3333333v-1.6666667c0-.1843333-.149-.3333333-.33333334-.3333333zm-.33333333 1.6666667h-1.33333333v-1h1.33333333z"/><path d="m11.1666667 11h-2.00000003c-.18433334 0-.33333334.149-.33333334.3333333v1.6666667c0 .1843333.149.3333333.33333334.3333333h2.00000003c.1843333 0 .3333333-.149.3333333-.3333333v-1.6666667c0-.1843333-.149-.3333333-.3333333-.3333333zm-.3333334 1.6666667h-1.3333333v-1h1.3333333z"/><path d="m15.8333333 11h-2c-.1843333 0-.3333333.149-.3333333.3333333v1.6666667c0 .1843333.149.3333333.3333333.3333333h2c.1843334 0 .3333334-.149.3333334-.3333333v-1.6666667c0-.1843333-.149-.3333333-.3333334-.3333333zm-.3333333 1.6666667h-1.3333333v-1h1.3333333z"/><path d="m6.83333333 15.0833333h-2c-.18433333 0-.33333333.149-.33333333.3333334v1.6666666c0 .1843334.149.3333334.33333333.3333334h2c.18433334 0 .33333334-.149.33333334-.3333334v-1.6666666c0-.1843334-.149-.3333334-.33333334-.3333334zm-.33333333 1.6666667h-1.33333333v-1h1.33333333z"/><path d="m11.1666667 15.0833333h-2.00000003c-.18433334 0-.33333334.149-.33333334.3333334v1.6666666c0 .1843334.149.3333334.33333334.3333334h2.00000003c.1843333 0 .3333333-.149.3333333-.3333334v-1.6666666c0-.1843334-.149-.3333334-.3333333-.3333334zm-.3333334 1.6666667h-1.3333333v-1h1.3333333z"/><path d="m15.9106667 14.87-1.433 1.7196667-.742-.742-.4713334.4713333 1 1c.0623334.063.1473334.0976667.2356667.0976667.005 0 .01 0 .015-.0003334.0936667-.0043333.181-.0476666.2413333-.1193333l1.6666667-2z"/></g></svg>