<svg height="20" viewBox="0 0 24 20" width="24" xmlns="http://www.w3.org/2000/svg"><g fill="#5d5d5d"><path d="m23.2653061 15.1020408c-.8227551 0-1.2522449.2454592-1.6312245.4619388-.3328061.1902041-.6202551.3543877-1.2262245.3543877-.6059693 0-.8934183-.1642346-1.2262244-.3543877-.3789796-.2164796-.8084694-.4619388-1.6312245-.4619388-.8226531 0-1.2521429.2454592-1.6310204.4619388-.3327551.1902041-.6201531.3543877-1.2260205.3543877-.6058673 0-.8933163-.1642346-1.2260714-.3543877-.3789286-.2164796-.8083673-.4619388-1.6310714-.4619388-.8226531 0-1.2521429.2454592-1.6310204.4619388-.33275512.1901531-.62010206.3543877-1.22596941.3543877-.60586734 0-.89321428-.1642346-1.22596938-.3543367-.37887755-.2165306-.80836735-.4619898-1.63102041-.4619898-.15413266 0-.2944898.0086225-.42326531.0240816v-2.0546938h3.68367347v1.2448979c0 .2254082.1827551.4081633.40816327.4081633s.40816327-.1827551.40816327-.4081633v-9.40816323c0-1.42653062.7342347-2.6842347 1.8441837-3.41683674 1.1544387.76107143 1.8394898 2.02836735 1.8394898 3.41683674 0 .22540816.1827551.40816326.4081632.40816326.2254082 0 .4081633-.1827551.4081633-.40816326 0-1.51311225-.6783163-2.90591837-1.8406123-3.8325.4460715-.1672449.9286225-.25933674 1.432449-.25933674 2.2562755 0 4.0918368 1.83561225 4.0918368 4.09183674 0 .22540816.1827551.40816326.4081632.40816326.2254082 0 .4081633-.1827551.4081633-.40816326 0-2.70637756-2.2017857-4.90816327-4.9081633-4.90816327-2.7063775 0-4.90816324 2.20178571-4.90816324 4.90816327v.78571428h-3.68367347v-.78571428c0-2.25627551 1.83561225-4.09183674 4.09183674-4.09183674.09418367 0 .18954081.00321429.28341837.00964286.2253061.01545918.4196939-.1544898.435051-.37943878.0153572-.22484694-.1544898-.41969388-.3793877-.435-.112347-.00765306-.22642861-.01153061-.33908167-.01153061-2.70637755 0-4.90816327 2.20178571-4.90816327 4.90816327v10.44780613c-.14311224.0662755-.27.1385714-.39142857.2079592-.33280612.1902041-.62015306.3544387-1.22607143.3544387-.60586735 0-.89321428-.1642346-1.22596939-.3543877-.37887755-.2164796-.80836734-.4619388-1.6310204-.4619388-.22540817 0-.40816327.1827551-.40816327.4081633 0 .2254081.1827551.4081632.40816327.4081632.60586734 0 .89321428.1642347 1.22596938.3543878.37892857.2164796.80836735.4619388 1.63102041.4619388.82270408 0 1.25214286-.2454592 1.63107143-.4619388.3327551-.1902041.62015306-.3543878 1.22602041-.3543878.60586734 0 .89321428.1642347 1.22596939.3543878.37887755.2164796.80836734.4619388 1.63096938.4619388.82265306 0 1.25214283-.2454592 1.63102043-.4619388.3327551-.1902041.620153-.3543878 1.2259694-.3543878.6058673 0 .8933163.1642347 1.2260714.3543878.3789286.2164796.8083673.4619388 1.6310714.4619388.8226531 0 1.2521429-.2454592 1.6310204-.4619388.3327551-.1902041.6201531-.3543878 1.2260204-.3543878.6059694 0 .8934184.1642347 1.2262245.3543878.3789796.2164796.8084694.4619388 1.6312245.4619388s1.2522449-.2454592 1.6312245-.4619388c.3328572-.1901531.6203061-.3543878 1.2262755-.3543878.2254082 0 .4081633-.1827551.4081633-.4081632 0-.2254082-.1827551-.4081633-.4081633-.4081633zm-17.56632651-2.8469388v-2.46428567h3.68367347v2.46428567zm3.68367347-5.74489792v2.46428572h-3.68367347v-2.46428572z"/><path d="m20.4078571 17.5510204c-.6059693 0-.8934183-.1642347-1.2262244-.3543877-.3789796-.2164796-.8084694-.4619388-1.6312245-.4619388-.8226531 0-1.2521429.2454592-1.6310204.4619388-.3327551.190204-.6201531.3543877-1.2260205.3543877-.6059183 0-.8933163-.1642347-1.2260714-.3543877-.3789286-.2164796-.8084183-.4619388-1.6310714-.4619388s-1.2520918.2454592-1.6310204.4619388c-.33275512.190153-.62010206.3543877-1.22596941.3543877-.60586734 0-.89321428-.1642347-1.22596938-.3543877-.37887755-.2164796-.80836735-.4619388-1.63102041-.4619388s-1.25214286.2454592-1.63107143.4619388c-.3327551.190153-.62010204.3543877-1.22602041.3543877-.22540816 0-.40816326.1827551-.40816326.4081633 0 .2254081.1827551.4081632.40816326.4081632.82270408 0 1.25214286-.2454591 1.63107143-.4619387.3327551-.1902041.62015306-.3543878 1.22602041-.3543878.60586734 0 .89321428.1642347 1.22596939.3543878.37887755.2164796.80836734.4619387 1.63096938.4619387.82265306 0 1.25209183-.2454591 1.63102043-.4619387.3327551-.1902041.620153-.3543878 1.2259694-.3543878.6059183 0 .8933163.1642347 1.2260714.3543878.3789286.2164796.8084184.4619387 1.6310714.4619387.8226531 0 1.2521429-.2454591 1.6310204-.4619387.3327551-.1902041.6201531-.3543878 1.2260204-.3543878.6059694 0 .8934184.1642347 1.2262245.3543878.3789796.2164796.8084694.4619387 1.6312245.4619387.2254082 0 .4081633-.1827551.4081633-.4081632 0-.2254082-.1827041-.4081633-.4081123-.4081633z"/><path d="m17.5504082 18.3673469c-.8226531 0-1.2521429.2454592-1.6310204.4619388-.3327551.1902041-.6201531.3543878-1.2260205.3543878-.6059183 0-.8933163-.1642347-1.2260714-.3543878-.3789286-.2164796-.8084183-.4619388-1.6310714-.4619388s-1.2521429.2454592-1.6310204.4619388c-.33275512.1901531-.62010206.3543878-1.22596941.3543878-.60586734 0-.89321428-.1642347-1.22596938-.3543368-.37887755-.2165306-.80836735-.4619898-1.63102041-.4619898-.22540817 0-.40816327.1827551-.40816327.4081633s.1827551.4081633.40816327.4081633c.60586734 0 .89321428.1642347 1.22596939.3543877.37887755.2164796.80836734.4619388 1.63096938.4619388.82265306 0 1.25214283-.2454592 1.63102043-.4619388.3327551-.1902041.620153-.3543877 1.2259694-.3543877.6059183 0 .8933163.1642347 1.2260714.3543877.3789286.2164796.8084184.4619388 1.6310714.4619388.8226531 0 1.2521429-.2454592 1.6310204-.4619388.3327551-.1902041.6201531-.3543877 1.2260204-.3543877.2254082 0 .4081633-.1827551.4081633-.4081633s-.1827041-.4081633-.4081122-.4081633z"/></g></svg>