<svg height="40" viewBox="0 0 40 40" width="40" xmlns="http://www.w3.org/2000/svg"><g fill="none" fill-rule="evenodd"><circle cx="20" cy="20" fill="#3ec8eb" r="19.25" stroke="#fff" stroke-width="1.5"/><path d="m18.75 21c.953125 0 1.8320312-.234375 2.6367188-.703125.8046874-.46875 1.4414062-1.1054688 1.9101562-1.9101562.46875-.8046876.703125-1.6835938.703125-2.6367188 0-.71875-.140625-1.40625-.421875-2.0625l-1.7109375-4.78125-.0234375-.0234375v-.0234375c-.265625-.65625-.6796875-1.2109375-1.2421875-1.6640625s-1.2109375-.7734375-1.9453125-.9609375c-.125-.71875-.4570312-1.3125-.9960938-1.78125-.5390624-.46875-1.1757812-.703125-1.9101562-.703125-.6875 0-1.2929688.2109375-1.8164062.6328125-.5234376.421875-.8710938.9609375-1.0429688 1.6171875h-1.78125c-.171875-.65625-.5195312-1.1953125-1.0429688-1.6171875-.52343745-.421875-1.1289062-.6328125-1.8164062-.6328125-.734375 0-1.37109375.234375-1.91015625.703125s-.87109375 1.0625-.99609375 1.78125c-.734375.1875-1.375.5078125-1.921875.9609375-.578125.484375-1 1.078125-1.265625 1.78125h-.0234375l-1.59375 4.4765625c-.359375.734375-.5390625 1.5-.5390625 2.296875 0 .953125.234375 1.8320312.703125 2.6367188.46875.8046874 1.10546875 1.4414062 1.91015625 1.9101562s1.68359375.703125 2.63671875.703125c.859375 0 1.66015625-.1914062 2.40234375-.5742188.7421875-.3828124 1.35546875-.9101562 1.83984375-1.5820312s.796875-1.421875.9375-2.25c.4375.4375.9609375.65625 1.5703125.65625s1.1328125-.21875 1.5703125-.65625c.140625.828125.453125 1.578125.9375 2.25s1.0976563 1.1992188 1.8398437 1.5820312c.7421876.3828126 1.5429688.5742188 2.4023438.5742188zm-4.8515625-7.21875c-.203125-.3125-.4726563-.5625-.8085937-.75-.3359376-.1875-.6992188-.28125-1.0898438-.28125s-.7539062.09375-1.0898438.28125c-.3359374.1875-.6054687.4375-.8085937.75-.390625-.96875-1.02734375-1.7578125-1.91015625-2.3671875s-1.86328125-.9140625-2.94140625-.9140625c-.78125 0-1.53125.171875-2.25.515625l.5625-1.5234375v-.0234375c.21875-.578125.546875-1.03515625.984375-1.37109375s.9453125-.53515625 1.5234375-.59765625l.6796875-.0703125v-.6796875c0-.453125.13671875-.81640625.41015625-1.08984375s.63671875-.41015625 1.08984375-.41015625.81640625.13671875 1.08984375.41015625.41015625.63671875.41015625 1.08984375v.75h4.5v-.75c0-.453125.1367188-.81640625.4101562-1.08984375.2734376-.2734375.6367188-.41015625 1.0898438-.41015625s.8164062.13671875 1.0898438.41015625c.2734374.2734375.4101562.63671875.4101562 1.08984375v.6796875l.6796875.0703125c.546875.0625 1.046875.265625 1.5.609375s.7890625.7734375 1.0078125 1.2890625l.5859375 1.640625c-.734375-.359375-1.4921875-.5390625-2.2734375-.5390625-1.078125 0-2.0585938.3046875-2.9414062.9140625-.8828126.609375-1.5195313 1.3984375-1.9101563 2.3671875zm-8.6484375 5.71875c-.6875 0-1.31640625-.1679688-1.88671875-.5039062-.5703125-.3359376-1.0234375-.7890626-1.359375-1.359375-.3359375-.5703126-.50390625-1.1992188-.50390625-1.8867188 0-.46875.109375-.9609375.328125-1.4765625l.0234375-.09375c.296875-.65625.75-1.1835937 1.359375-1.5820313.609375-.3984374 1.2890625-.5976562 2.0390625-.5976562.6875 0 1.31640625.1679688 1.88671875.5039062.5703125.3359376 1.0234375.7890626 1.359375 1.359375.3359375.5703126.50390625 1.1992188.50390625 1.8867188s-.16796875 1.3164062-.50390625 1.8867188c-.3359375.5703124-.7890625 1.0234374-1.359375 1.359375-.5703125.3359374-1.19921875.5039062-1.88671875.5039062zm13.5 0c-.6875 0-1.3164062-.1679688-1.8867188-.5039062-.5703124-.3359376-1.0234374-.7890626-1.359375-1.359375-.3359374-.5703126-.5039062-1.1992188-.5039062-1.8867188s.1679688-1.3164062.5039062-1.8867188c.3359376-.5703124.7890626-1.0234374 1.359375-1.359375.5703126-.3359374 1.1992188-.5039062 1.8867188-.5039062s1.3164062.1679688 1.8867188.5039062c.5703124.3359376 1.0234374.7890626 1.359375 1.359375.3359374.5703126.5039062 1.1992188.5039062 1.8867188s-.1679688 1.3164062-.5039062 1.8867188c-.3359376.5703124-.7890626 1.0234374-1.359375 1.359375-.5703126.3359374-1.1992188.5039062-1.8867188.5039062zm-6.7382812-3.75c-.2109376 0-.390625-.0742188-.5390626-.2226562-.1484374-.1484376-.2226562-.328125-.2226562-.5390626 0-.2109374.0742188-.3867187.2226562-.5273437.1484376-.140625.3242188-.2109375.5273438-.2109375.21875 0 .3984375.0703125.5390625.2109375s.2109375.3164063.2109375.5273437c0 .2109376-.0703125.390625-.2109375.5390626-.140625.1484374-.3164063.2226562-.5273437.2226562z" fill="#fff" fill-rule="nonzero" transform="translate(8 8)"/></g></svg>