<svg height="40" viewBox="0 0 40 40" width="40" xmlns="http://www.w3.org/2000/svg"><g fill="none" fill-rule="evenodd"><circle cx="20" cy="20" fill="#5493f9" r="19.25" stroke="#fff" stroke-width="1.5"/><path d="m5.25 20.25v-1.5h13.5v1.5h3.75v-6.75c0-.328125-.0664062-.6328125-.1992188-.9140625-.1328124-.28125-.3164062-.53125-.5507812-.75v-5.0859375c0-.609375-.2226562-1.13671875-.6679688-1.58203125-.4453124-.4453125-.9726562-.66796875-1.5820312-.66796875h-15c-.609375 0-1.13671875.22265625-1.58203125.66796875s-.66796875.97265625-.66796875 1.58203125v5.0859375c-.234375.21875-.41796875.46875-.55078125.75s-.19921875.5859375-.19921875.9140625v6.75zm0-9h-1.5v-4.5c0-.203125.07421875-.37890625.22265625-.52734375s.32421875-.22265625.52734375-.22265625h15c.203125 0 .3789062.07421875.5273438.22265625.1484374.1484375.2226562.32421875.2226562.52734375v4.5h-1.5v-.75c0-.609375-.2226562-1.13671875-.6679688-1.58203125-.4453124-.4453125-.9726562-.66796875-1.5820312-.66796875h-3c-.5625 0-1.0625.1953125-1.5.5859375-.4375-.390625-.9375-.5859375-1.5-.5859375h-3c-.609375 0-1.13671875.22265625-1.58203125.66796875s-.66796875.97265625-.66796875 1.58203125zm6 0h-4.5v-.75c0-.203125.07421875-.3789062.22265625-.52734375.1484375-.1484375.32421875-.22265625.52734375-.22265625h3c.203125 0 .3789062.07421875.5273438.22265625.1484374.14843755.2226562.32421875.2226562.52734375zm6 0h-4.5v-.75c0-.203125.0742188-.3789062.2226562-.52734375.1484376-.1484375.3242188-.22265625.5273438-.22265625h3c.203125 0 .3789062.07421875.5273438.22265625.1484374.14843755.2226562.32421875.2226562.52734375zm-13.5 7.5h-.75v-5.25c0-.203125.07421875-.3789062.22265625-.5273438.1484375-.1484374.32421875-.2226562.52734375-.2226562h16.5c.203125 0 .3789062.0742188.5273438.2226562.1484374.1484376.2226562.3242188.2226562.5273438v5.25h-.75v-1.5h-16.5z" fill="#fff" fill-rule="nonzero" transform="translate(8 8)"/></g></svg>