<svg height="40" viewBox="0 0 40 40" width="40" xmlns="http://www.w3.org/2000/svg"><g fill="none" fill-rule="evenodd"><circle cx="20" cy="20" fill="#f0626c" r="19.25" stroke="#fff" stroke-width="1.5"/><path d="m9 21v-8.3203125c.859375-.171875 1.5703125-.5859375 2.1328125-1.2421875.578125-.6875.8671875-1.5.8671875-2.4375 0-.546875-.0859375-1.109375-.2578125-1.6875s-.4140625-1.125-.7265625-1.640625c-.34375-.5625-.7265625-1.0078125-1.1484375-1.3359375-.515625-.390625-1.0546875-.5859375-1.6171875-.5859375s-1.1015625.1953125-1.6171875.5859375c-.421875.328125-.8046875.7734375-1.1484375 1.3359375-.3125.515625-.5546875 1.0625-.7265625 1.640625s-.2578125 1.140625-.2578125 1.6875c0 .9375.2890625 1.75.8671875 2.4375.5625.65625 1.2734375 1.0703125 2.1328125 1.2421875v8.3203125zm8.25 0v-9.1171875c.65625-.171875 1.1953125-.5234375 1.6171875-1.0546875s.6328125-1.140625.6328125-1.828125v-5.25h-1.5v5.25c0 .421875-.1445312.77734375-.4335938 1.0664062-.2890624.2890626-.6445312.4335938-1.0664062.4335938s-.7773438-.1445312-1.0664062-.4335938c-.2890626-.28906245-.4335938-.6445312-.4335938-1.0664062v-5.25h-1.5v5.25c0 .6875.2109375 1.296875.6328125 1.828125s.9609375.8828125 1.6171875 1.0546875v9.1171875zm-.75-11.25c.203125 0 .3789062-.07421875.5273438-.22265625.1484374-.1484375.2226562-.32421875.2226562-.52734375v-5.25h-1.5v5.25c0 .203125.0742188.37890625.2226562.52734375.1484376.1484375.3242188.22265625.5273438.22265625zm-8.25 1.5c-.6875 0-1.234375-.1914062-1.640625-.5742188-.40625-.3828124-.609375-.9414062-.609375-1.6757812 0-.375.0703125-.80078125.2109375-1.27734375s.328125-.90234375.5625-1.27734375.484375-.66796875.75-.87890625.5078125-.31640625.7265625-.31640625.4609375.10546875.7265625.31640625.515625.50390625.75.87890625.421875.80078125.5625 1.27734375.2109375.90234375.2109375 1.27734375c0 .734375-.203125 1.2929688-.609375 1.6757812-.40625.3828126-.953125.5742188-1.640625.5742188z" fill="#fff" fill-rule="nonzero" transform="translate(8 8)"/></g></svg>