<svg height="20" viewBox="0 0 20 20" width="20" xmlns="http://www.w3.org/2000/svg"><g fill="#5d5d5d"><path d="m3.91961722 18.1151196c-.18028708 0-.32660287.1463158-.32660287.3266029v.8296651h-2.93971291v-2.2864115c0-.1802871-.14631579-.3266029-.32660287-.3266029-.18028709 0-.32660288.1463158-.32660288.3266029v2.61311c0 .1802871.14631579.3266029.32660288.3266029h3.59291865c.18028709 0 .32660288-.1463158.32660288-.3266029v-1.1562679c0-.1802871-.14631579-.3266986-.32660288-.3266986z"/><path d="m19.2714833 16.6583732c-.1802871 0-.3266029.1463158-.3266029.3266029v2.2864115h-2.9397129v-.8647847c0-.1802871-.1463158-.3266029-.3266029-.3266029s-.3266029.1463158-.3266029.3266029v1.1913875c0 .1802871.1463158.3266029.3266029.3266029h3.5930143c.1802871 0 .3266029-.1463158.3266029-.3266029v-2.61311c-.0000957-.1801914-.1464115-.3265072-.3266985-.3265072z"/><path d="m6.6891866 17.9648804h-4.88382775c-.63511962 0-1.15205741-.5167464-1.15205741-1.1520574v-2.7675598c0-.1802871-.14631579-.3266029-.32660287-.3266029-.18028709 0-.32660288.1463158-.32660288.3266029v2.7675598c0 .9954067.80985646 1.8053588 1.80526316 1.8053588h4.88382775c.18028708 0 .32660287-.1463158.32660287-.3266029 0-.1803827-.14631579-.3266985-.32660287-.3266985z"/><path d="m19.2714833 13.7186603c-.1802871 0-.3266029.1463158-.3266029.3266029v2.7675598c0 .635311-.5167464 1.1520574-1.1520574 1.1520574h-5.2189474c-.1802871 0-.3266029.1463158-.3266029.3266029 0 .180287.1463158.3266028.3266029.3266028h5.2189474c.9954067 0 1.8053588-.8098564 1.8053588-1.8053588v-2.7675598c-.0000957-.1801914-.1464115-.3265072-.3266985-.3265072z"/><path d="m17.5086124 10.1748325-.1456459-1.01961719c-.0145454-.10162679-.0336842-.20315789-.0570335-.30229665-.0413397-.17569378-.2178947-.28497608-.3926316-.24334928-.1755981.04133971-.2844976.21703349-.2431579.39263158.018756.08038277.0342584.16287081.0460287.24526315l.145646 1.01971289c.0233493.1628708.1631579.2803828.3230622.2803828.015311 0 .0309091-.0011483.0465072-.0032536.1785646-.0255502.3026794-.1908134.2772248-.3694737z"/><path d="m11.1055502 6.20602871h-5.4702392c-1.69818181 0-3.1599043 1.26784689-3.3999043 2.94889952l-.15856459 1.10937797c-.02564594.1786603.09846889.3441149.27712918.3695694.01569378.0022966.03119617.003445.04650718.003445.15990431 0 .29971292-.1176077.32287081-.2803828l.1585646-1.10937799c.19444976-1.3616268 1.37818181-2.38822967 2.75339712-2.38822967h5.4703349c.1802871 0 .3266029-.14631579.3266029-.32660287s-.1463158-.32669856-.3266986-.32669856z"/><path d="m18.1904306 11.1477512c-.2983732-.2933014-.5275598-.6450718-.6810526-1.045933-.0386603-.1010526-.1249761-.17636365-.2302392-.20124404-.1051675-.02430622-.2160766.00440192-.2957895.07760766-.5616268.51655498-1.2882297.80095698-2.0457416.80095698h-10.27665076c-.75751196 0-1.48401914-.2843063-2.04583732-.80095698-.07971292-.07330144-.19023924-.10210526-.29588517-.07760766-.10535885.02478469-.19157895.10009574-.23023923.20124404-.15339713.4007655-.38229666.7525359-.68086125 1.045933-.9307177.9142584-1.43052631 2.1366507-1.40698564 3.442201.02363636 1.3205741 1.13636363 2.3950239 2.48047846 2.3950239h14.63540671c1.3441148 0 2.4567464-1.0744498 2.4806698-2.3950239.0232536-1.3055503-.4764593-2.5278469-1.4072727-3.442201zm-1.0737799 5.1840191h-14.63540668c-.99023924 0-1.81004785-.7865071-1.82717703-1.7536842-.0200957-1.1241148.41004784-2.1770335 1.21167464-2.9644019.26133971-.2569378.47913875-.5498564.65052631-.8745454.62373206.4494736 1.37052632.69311 2.14440192.6933014h10.27674644c.7737799 0 1.5207655-.2436364 2.1444976-.6931101.1712918.324689.3889952.6177034.6505263.8745455.8014354.7873684 1.2317703 1.8400957 1.2116746 2.9644019-.0174162.96689-.8373205 1.7534928-1.8274641 1.7534928z"/><path d="m5.45712919 7.60832536c-.12736842-.12755981-.33444976-.12755981-.46181819 0l-.9799043.97990431c-.12755981.1275598-.12755981.33435406 0 .46181818.06373206.06382775.14727273.09569378.23090909.09569378s.16727273-.03186603.23090909-.09569378l.97990431-.97990431c.12746411-.12755981.12746411-.33425837 0-.46181818z"/><path d="m7.09023923 7.28162679c-.12736842-.1275598-.33444976-.1275598-.46181818 0l-2.44976076 2.44976077c-.12755981.12755981-.12755981.33435404 0 .46181814.06373205.0638278.14727272.0956938.23090909.0956938.08363636 0 .16727273-.031866.23090909-.0956938l2.44976076-2.44976072c.12755981-.12746412.12755981-.33425838 0-.46181819z"/><path d="m13.3920574 8.81913876c-1.2607655 0-2.2864115 1.02564593-2.2864115 2.28641144 0 .1802871.1463158.3266029.3266029.3266029s.3266029-.1463158.3266029-.3266029c0-.9005741.7326316-1.6332057 1.6332057-1.6332057.9005742 0 1.6332058.7326316 1.6332058 1.6332057 0 .1802871.1463157.3266029.3266028.3266029s.3266029-.1463158.3266029-.3266029c0-1.26076551-1.0256459-2.28641144-2.2864115-2.28641144z"/><path d="m3.91961722 13.7186603h-2.61311004c-.18028708 0-.32660287.1463158-.32660287.3266029v.6533014c0 .5403828.43952153.9799043.9799043.9799043h1.95980861c.54038278 0 .97990431-.4395215.97990431-.9799043s-.43952153-.9799043-.97990431-.9799043zm0 1.3065072h-1.95980861c-.18009569 0-.32660287-.1465072-.32660287-.3266029v-.3266029h2.28641148c.1800957 0 .32660288.1465072.32660288.3266029s-.14650718.3266029-.32660288.3266029z"/><path d="m18.2915789 13.7186603h-2.61311c-.5403828 0-.9799043.4395215-.9799043.9799043s.4395215.9799043.9799043.9799043h1.9598086c.5403828 0 .9799043-.4395215.9799043-.9799043v-.6533014c0-.1802871-.1463158-.3266029-.3266029-.3266029zm-.3266985.9799043c0 .1800957-.1465072.3266029-.3266029.3266029h-1.9598086c-.1800957 0-.3266029-.1465072-.3266029-.3266029s.1465072-.3266029.3266029-.3266029h2.2864115z"/><path d="m12.4121531 16.3317703h-5.55282296c-.18028708 0-.32660287.1463158-.32660287.3266029v1.9598086c0 .1802871.14631579.3266029.32660287.3266029h5.55282296c.1802871 0 .3266029-.1463158.3266029-.3266029v-1.9598086c0-.1802871-.1463158-.3266029-.3266029-.3266029zm-.3266986 1.9598086h-4.89952149v-1.3065071h4.89952149z"/><path d="m12.9021053 13.3920574h-6.20612444c-.63043062 0-1.14325359.5130144-1.14325359 1.1432536s.51282297 1.1432536 1.14325359 1.1432536h6.20602874c.6304306 0 1.1432536-.5130144 1.1432536-1.1432536s-.512823-1.1432536-1.1431579-1.1432536zm0 1.6331101h-6.20612444c-.27014354 0-.48995215-.2198086-.48995215-.4899522 0-.2701435.21980861-.4899521.48995215-.4899521h6.20602874c.2701435 0 .4899522.2198086.4899522.4899521.0000956.2701436-.219713.4899522-.4898565.4899522z"/><path d="m7.83923445 13.3920574c-.18028708 0-.32660287.1463158-.32660287.3266029v1.6332057c0 .1802871.14631579.3266029.32660287.3266029s.32660287-.1463158.32660287-.3266029v-1.6332057c0-.1802871-.14631579-.3266029-.32660287-.3266029z"/><path d="m9.79904306 13.3920574c-.18028708 0-.32660287.1463158-.32660287.3266029v1.6332057c0 .1802871.14631579.3266029.32660287.3266029s.32660284-.1463158.32660284-.3266029v-1.6332057c0-.1802871-.14631576-.3266029-.32660284-.3266029z"/><path d="m11.7588517 13.3920574c-.1802871 0-.3266029.1463158-.3266029.3266029v1.6332057c0 .1802871.1463158.3266029.3266029.3266029s.3266028-.1463158.3266028-.3266029v-1.6332057c0-.1802871-.1463157-.3266029-.3266028-.3266029z"/><path d="m15.1885167 0c-2.6115789 0-4.7361722 2.12478469-4.7361722 4.73617225s2.1245933 4.73617225 4.7361722 4.73617225c2.611579 0 4.7361723-2.12478469 4.7361723-4.73617225s-2.1245933-4.73617225-4.7361723-4.73617225zm0 8.81913876c-2.2512918 0-4.0829665-1.83157895-4.0829665-4.08296651 0-2.25129187 1.831579-4.08296651 4.0829665-4.08296651 2.2513876 0 4.0829666 1.83157895 4.0829666 4.08296651s-1.8316747 4.08296651-4.0829666 4.08296651z"/><path d="m16.5478469 2.97282297c-.2743541-.24688996-.7065072-.38411484-1.296268-.38411484-.4801913 0-.8572248.04086125-1.1453588.08899522h.0002871v4.56746411h.596555v-1.85167464c.1370335.03416268.3016268.04114833.48.04114833.5828708 0 1.0971292-.17148326 1.4127273-.50746412.2332057-.24019138.3566507-.56928229.3566507-.98755981.0000957-.41148325-.1508134-.74727272-.4045933-.96679425zm-1.3512919 1.98191387c-.198756 0-.3633493-.01368421-.4936842-.04813397v-1.79655502c.1028708-.02746412.3016268-.04813397.5622967-.04813397.6583732 0 1.0904306.29511961 1.0904306.90526315 0 .63751197-.4390431.98755981-1.1590431.98755981z"/></g></svg>