<svg height="20" viewBox="0 0 17 20" width="17" xmlns="http://www.w3.org/2000/svg"><path d="m9.588125 10.3120703 7.2640234-7.99140624c.159961-.17601562.1995704-.42046875.1033204-.63796875-.096211-.2175-.30375-.35261719-.5415625-.35261719h-2.2721094l.7919531-.83527343c.1114062-.1175.1064453-.30300781-.0110156-.41441407-.117461-.11132812-.3029688-.10644531-.4144141.01105469l-1.174375 1.23867188h-12.71656249c-.23785156 0-.44539062.13511718-.54160156.35261718-.09621094.21753907-.05660156.46199219.10335938.63796875l7.26402343 7.99136718c.07742188.0851563.16441407.1596875.25820313.2233203v7.0414453c0 .3719141-.23601563.7038672-.58730469.8259766l-2.43386719.84625c-.0059375.0020703-.01179687.0042969-.01753906.0067187-.17191406.072461-.26617187.2507813-.22925781.4336329.03695312.1828515.19304687.3105893.37960937.3105893h7.40519529c.1865625 0 .3426953-.1276987.3796485-.3105893.0369531-.1828516-.0573438-.361211-.2292578-.4336329-.0057422-.0024218-.0116407-.0046875-.0175391-.0067187l-2.4338672-.84625c-.35125-.1221484-.58730469-.4540625-.58730469-.8259766v-7.0414062c.09382813-.0636719.18082032-.1382031.25824219-.2233594zm3.9978516-8.39570311h2.8279297c.0018749 0 .0029687.00003906.0032812.00007812.0016406.00164063.0034375.00570313.0035547.00671875 0 0-.0005469.00109375-.0024219.00316406l-1.8041016 1.98476563h-1.4419531c.1317969-.42222656.0478516-.91132813-.2403906-1.30480469zm-3.86132816 17.04019531 1.31484376.4571484h-5.04773439l1.31484375-.4571484c.58679688-.2040234.98105469-.7584766.98105469-1.3797266v-6.8085156c.01292969.0021094.02597656.0035547.03898437.0052734.00687501.0008985.01375001.0019141.02062501.0027344.01554687.001836.03113281.0032813.04671875.0045703.00468749.0003907.009375.0007813.0140625.0011329.03570312.0026562.0715625.0044921.10761718.0044921.03609375 0 .07199219-.0018359.10777344-.0045312.00453125-.0003516.00910156-.0007031.01363281-.0010938.01574219-.0013281.03144532-.0027734.04710938-.0046093.0065625-.0007422.01308594-.0017579.01964844-.0026172.01328124-.0017578.02660156-.0032422.03980468-.0053516v6.8084375c-.00003906.6213281.39421875 1.1757813.98101563 1.3798047zm-.57035156-9.03886719c-.07085938.07796875-.15300782.14082029-.24304688.18738279-.0021875.0010156-.00445312.0017188-.00660156.0028125-.24359375.1229297-.53449219.1229688-.77808594 0-.00210937-.0010547-.004375-.0017578-.00652344-.0027734-.09003906-.0465625-.1721875-.10941408-.24308593-.18738283l-4.92699219-5.42039062h1.08699219c.161875 0 .29312499-.13125.29312499-.293125s-.13124999-.293125-.29312499-.293125h-1.61992188l-1.80410156-1.98476563c-.00128906-.00140625-.00195313-.00234375-.00214844-.0025 0-.00230468.00191406-.00632812.00253906-.00710937 0 0 .00117188-.00035156.00402344-.00035156h12.16074215l-.2714453.28628906c-.2394531-.15707031-.5132812-.24617188-.7935547-.25515625-.3880468-.01242188-.7426172.12859375-.9973047.39730469-.2547265.26867187-.3767968.62988281-.3436718 1.01707031.0043359.05046875.0114453.10054687.0208984.15011719-.42289061-.05703125-.84980467.06960937-1.14726561.38332031-.00488281.00515625-.00933594.01054687-.01414063.01578125h-3.830625c-.161875 0-.293125.13125-.293125.293125s.13125.293125.293125.293125h3.52835938c-.03984375.18269531-.04117188.37472656-.00527344.56402344-.05003906-.00675782-.10042969-.01121094-.15105469-.01285157-.38835937-.01257812-.74257812.12859375-.99730469.39730469-.45363281.47847656-.45742187 1.23445313-.04636718 1.79566406l-.3240625.34179688c-.11136719.1175-.10644532.30300781.01105468.41441406.05667969.05375.12921875.08039063.20164063.08039063.07761719 0 .15515625-.03066407.21277344-.09144532l.32382812-.3415625c.23945313.15707032.51324219.24617188.79359375.25515625.01585938.00050782.03160156.00078125.04734375.00078125.36976563 0 .70566407-.14035156.95-.39804687.25472659-.26867188.37679689-.62988281.34367189-1.01707031-.0043359-.05042969-.0114453-.10046875-.0208594-.15003907.0654297.00882813.1309766.01351563.1960938.01351563.3558203 0 .6997656-.13175781.9511718-.39695313.297461-.31375.4011719-.74679687.3216797-1.16605468.0500391.00675781.1004297.01121093.1510156.01285156.0158594.00050781.0316016.00078125.0473438.00078125.3211719 0 .6166797-.10601563.8489063-.30269531h1.296875zm.51683593-5.61902344c.136875-.14433593.3259375-.21542968.52562499-.21542968.229375 0 .4728125.09378906.6671875.27808593.3635938.34480469.4201563.87761719.1260938 1.18777344-.2941016.31007813-.8290235.28203125-1.19265629-.06253906-.00003906-.00003906-.00011718-.00011719-.00015625-.00015625-.36359375-.34476563-.42015625-.87757813-.12609375-1.18773438zm-.15117187 2.80097657c-.13792969.14546875-.33363281.22132812-.55304688.2146875-.23171875-.00742188-.45890625-.1059375-.63972656-.27738282-.36363281-.34476562-.42019531-.87757812-.12609375-1.18773437.13210937-.13933594.3178125-.21515625.52539062-.21515625.00921875 0 .0184375.00015625.02765625.00042969.23164063.00742187.45878907.10589843.63957032.27722656.00003906.00003906.00011718.00011719.00015625.00015625.18078125.17144531.29125.39304687.31101562.6240625.01867188.21800781-.04699218.41820312-.18492187.56371094zm1.43628906-3.78777344c-.0186719-.21800781.0469922-.41820313.1849219-.56371094.1321093-.13929687.3177734-.21515625.5253906-.21515625.0091406 0 .0183984.00015625.0276562.00042969.2317188.00746094.4589063.1059375.6396875.27738281.3635938.34472656.4201563.87757813.1260938 1.18773438-.1379297.14546875-.3348047.22132812-.5530469.2146875-.2316797-.00738282-.4588672-.10589844-.6396484-.27734375-.1808203-.17140625-.29125-.39304688-.3110547-.62402344z" fill="#5d5d5d"/></svg>