<svg height="20" viewBox="0 0 26 20" width="26" xmlns="http://www.w3.org/2000/svg"><g fill="#5d5d5d"><path d="m4.24403183 11.8832891c-.23437501 0-.42440318.1900282-.42440318.4244032v.7638429c.00621687 2.1166279-.83430037 4.1476707-2.33421751 5.6407493l-.50936668.5093667c-.11024541.1065153-.1545922.2644231-.11563332.4127984.03875167.1483753.15479942.2642159.30317475.3029675.14837533.0389589.30607591-.0053879.41259119-.1156333l.50936669-.5093667c1.65968997-1.6518153 2.58972976-3.898997 2.58292869-6.2408819v-.7638429c0-.234375-.19006562-.4244032-.42444063-.4244032z"/><path d="m21.2201592 11.8832891c-.2343751 0-.4244363.1900282-.4244363.4244032v.7638429c-.006391 2.3420921.9244777 4.5892738 2.5849966 6.2408819l.5093667.5093667c.1666114.160809.4312417.1585295.5949519-.0051807s.1659898-.4283405.0051807-.5949519l-.5093667-.5093667c-1.500746-1.4926641-2.3420922-3.5239142-2.3362898-5.6407493v-.7638429c0-.234375-.1900281-.4244032-.4244031-.4244032z"/><path d="m6.66611406 19.8226127c1.44292939-1.4350547 2.25194796-3.3879724 2.24638161-5.4229525v-1.2431615c0-.234375-.190057-.4244032-.42443201-.4244032s-.42440318.1900282-.42440318.4244032v1.2431615c.00497347 1.8099303-.71431533 3.5465019-1.99767905 4.8228199-.11024536.1065152-.15459215.2644231-.11563331.4127984.03875167.1483753.1545922.2642159.30296753.3029675.14837533.0389589.30628318-.0053879.41279841-.1156333z"/><path d="m16.9761273 12.7320955c-.234375 0-.424432.1900282-.424432.4244032v1.2431615c-.0055663 2.0349801.8034522 3.9878978 2.2463816 5.4229525.1666114.1608091.4312417.1585295.594952-.0051807.1637101-.1637102.1659897-.4283405.0051806-.5949519-1.2833637-1.276318-2.0026525-3.0128896-1.997679-4.8228199v-1.2431615c0-.234375-.1900282-.4244032-.4244032-.4244032z"/><path d="m12.7320955 19.5225464v-6.7904509c0-.234375-.1900282-.4244032-.4244032-.4244032s-.4244032.1900282-.4244032.4244032v6.7904509c0 .234375.1900282.4244032.4244032.4244032s.4244032-.1900282.4244032-.4244032z"/><path d="m24.1909814 0h-22.91777185c-.70312499 0-1.27320955.57008456-1.27320955 1.27320955v8.48806366c0 .70312499.57008456 1.27320959 1.27320955 1.27320959h22.91777185c.703125 0 1.2732096-.5700846 1.2732096-1.27320959v-8.48806366c0-.70312499-.5700846-1.27320955-1.2732096-1.27320955zm-21.22015912 10.1856764v-.84880637h19.52254642v.84880637zm19.52254642-1.69761274h-19.52254642v-.84880637h19.52254642zm2.1220159 1.27320955c0 .23437501-.1900282.42440319-.4244032.42440319h-.8488063v-3.39522547h-21.22015918v3.39522547h-.84880637c-.23437501 0-.42440318-.19002818-.42440318-.42440319v-8.48806366c0-.23437501.19002817-.42440318.42440318-.42440318h22.91777185c.234375 0 .4244032.19002817.4244032.42440318z"/><path d="m8.48806366 2.97082228h8.48806364v.84880637h-8.48806364z"/><path d="m22.9177719 1.69761273h.8488063v.84880637h-.8488063z"/><path d="m21.2201592 1.69761273h.8488063v.84880637h-.8488063z"/></g></svg>