<svg height="24" viewBox="0 0 21 24" width="21" xmlns="http://www.w3.org/2000/svg"><path d="m11.50575 12.3744844 8.7168281-9.58968753c.1919532-.21121875.2394844-.5045625.1239844-.7655625-.1154531-.261-.3645-.42314062-.649875-.42314062h-2.7265313l.9503438-1.00232812c.1336875-.141.1277344-.36360938-.0132187-.49729688-.1409532-.13359375-.3635625-.12773438-.4972969.01326563l-1.40925 1.48640624h-15.25987502c-.28542188 0-.53446875.16214063-.64992188.42314063-.11545313.26104687-.06792187.55439062.12403125.7655625l8.71682813 9.58964065c.09290625.1021875.19729687.191625.30984375.2679843v8.4497344c0 .4462969-.28321875.8446407-.70476563.9911719l-2.92064062 1.0155c-.007125.0024844-.01415625.0051563-.02104688.0080625-.20629687.0869531-.31940625.3009375-.27510937.5203594.04434375.2194219.23165625.3727072.45553125.3727072h8.88623442c.223875 0 .4112343-.1532385.4555781-.3727072.0443437-.2194219-.0688125-.4334531-.2751094-.5203594-.0068906-.0029062-.0139687-.005625-.0210469-.0080625l-2.9206406-1.0155c-.4215-.1465781-.7047656-.544875-.7047656-.9911719v-8.4496875c.1125937-.0764062.2169844-.1658437.3098906-.2680312zm4.7974219-10.07484378h3.3935156c.00225 0 .0035625.00004688.0039375.00009375.0019687.00196875.004125.00684375.0042656.0080625 0 0-.0006562.0013125-.0029062.00379688l-2.1649219 2.38171875h-1.7303438c.1581563-.50667188.0574219-1.09359375-.2884687-1.56576563zm-4.6335938 20.44823438 1.5778125.5485781h-6.05728123l1.57781251-.5485781c.70415624-.2448281 1.17726562-.9101719 1.17726562-1.6556719v-8.1702187c.01551563.0025312.03117188.0042656.04678125.0063281.00825005.0010781.01650005.0022969.02474995.0032813.0186563.0022031.0373594.0039375.0560626.0054843.005625.0004688.01125.0009375.016875.0013594.0428437.0031875.085875.0053906.1291406.0053906.0433125 0 .0863906-.0022031.1293281-.0054375.0054375-.0004218.0109219-.0008437.0163594-.0013125.0188906-.0015937.0377344-.0033281.0565312-.0055312.007875-.0008906.0157032-.0021094.0235782-.0031406.0159375-.0021094.0319218-.0038907.0477656-.0064219v8.170125c-.0000469.7455937.4730625 1.4109375 1.1772187 1.6557656zm-.6844218-10.8466406c-.0850313.0935625-.1836094.1689843-.2916563.2248593-.002625.0012188-.0053437.0020625-.0079219.0033751-.2923125.1475156-.6413906.1475625-.9337031 0-.00253125-.0012657-.00525-.0021094-.00782812-.0033282-.10804688-.055875-.206625-.1312969-.29170313-.2248593l-5.91239063-6.5044688h1.30439063c.19425 0 .35175-.1575.35175-.35175s-.1575-.35175-.35175-.35175h-1.94390625l-2.16492187-2.38171875c-.00154688-.0016875-.00234375-.0028125-.00257813-.003 0-.00276563.00229688-.00759375.00304688-.00853125 0 0 .00140625-.00042188.00482812-.00042188h14.5928906l-.3257344.34354688c-.2873437-.18848438-.6159374-.29540625-.9522656-.3061875-.4656562-.01490625-.8911406.1543125-1.1967656.47676562-.3056719.32240625-.4521563.75585938-.4124063 1.22048438.0052032.0605625.0137344.12065625.0250782.18014063-.5074688-.0684375-1.0197656.08353125-1.3767188.45998437-.0058593.0061875-.0112031.01265625-.0169687.0189375h-4.59675002c-.19425001 0-.35175.1575-.35175.35175s.1575.35175.35175.35175h4.23403122c-.0478125.21923438-.0494062.44967188-.0063281.67682812-.0600469-.00810937-.1205156-.01345312-.1812656-.01542187-.4660313-.01509375-.89109378.1543125-1.19676565.47676562-.54435937.57417188-.54890625 1.48134375-.05564062 2.15479688l-.388875.41015625c-.13364063.141-.12773438.36360937.01326562.49729687.06801563.0645.1550625.09646875.24196875.09646875.09314062 0 .1861875-.03679687.25532813-.10973437l.38859374-.409875c.28734373.18848437.61589063.29540625.95231253.3061875.0190312.00060937.0379218.0009375.0568125.0009375.4437187 0 .8467968-.16842187 1.14-.47765625.3056718-.32240625.4521562-.75585938.4124062-1.22048438-.0052031-.06051562-.0137344-.1205625-.0250312-.18004687.0785156.01059375.1571718.01621875.2353125.01621875.4269843 0 .8397187-.15810938 1.1414062-.47634375.3569531-.3765.4814063-.89615625.3860156-1.39926563.0600469.00810938.1205157.01345313.1812188.01542188.0190313.00060937.0379219.0009375.0568125.0009375.3854062 0 .7400156-.12721875 1.0186875-.36323438h1.55625zm.6202031-6.74282815c.16425-.17320312.391125-.25851562.63075-.25851562.27525 0 .567375.11254687.800625.33370312.4363125.41376563.5041875 1.05314063.1513125 1.42532813-.3529219.37209375-.9948281.3384375-1.4311875-.07504688-.0000469-.00004687-.0001406-.00014062-.0001875-.0001875-.4363125-.41371875-.5041875-1.05309375-.1513125-1.42528125zm-.1814063 3.36117188c-.1655156.17456249-.4003593.26559374-.6636562.25762499-.2780625-.00890624-.5506875-.12712499-.7676719-.33285937-.43635938-.41371875-.50423438-1.05309375-.1513125-1.42528125.15853125-.16720312.381375-.2581875.6304687-.2581875.0110625 0 .022125.0001875.0331875.00051562.2779688.00890625.5505469.12707813.7674844.33267188.0000469.00004688.0001406.00014062.0001875.0001875.2169375.20573437.3495.47165625.3732188.748875.0224062.26160937-.0563906.50184375-.2219063.67645313zm1.7235469-4.54532813c-.0224063-.26160938.0563906-.50184375.2219062-.67645313.1585313-.16715625.3813282-.2581875.6304688-.2581875.0109687 0 .0220781.0001875.0331875.00051563.2780625.00895312.5506875.127125.767625.33285937.4363125.41367188.5041875 1.05309375.1513125 1.42528125-.1655156.1745625-.4017656.26559375-.6636563.257625-.2780156-.00885937-.5506406-.12707812-.7675781-.3328125-.2169843-.2056875-.3495-.47165625-.3732656-.74882812z" fill="#5d5d5d"/></svg>