<svg height="32" viewBox="0 0 28 32" width="28" xmlns="http://www.w3.org/2000/svg"><path d="m15.341 16.4993125 11.6224375-12.78625c.2559375-.281625.3193125-.67275.1653125-1.02075-.1539375-.348-.486-.5641875-.8665-.5641875h-3.635375l1.267125-1.3364375c.17825-.188.1703125-.4848125-.017625-.6630625-.1879375-.178125-.48475-.1703125-.6630625.0176875l-1.879 1.981875h-20.3465c-.3805625 0-.712625.2161875-.8665625.5641875-.1539375.3480625-.0905625.7391875.165375 1.02075l11.6224375 12.7861875c.123875.13625.2630625.2555.413125.3573125v11.2663125c0 .5950625-.377625 1.1261875-.9396875 1.3215625l-3.8941875 1.354c-.0095.0033125-.018875.006875-.0280625.01075-.2750625.1159375-.425875.40125-.3668125.6938125.059125.2925625.308875.4969429.607375.4969429h11.8483125c.2985 0 .5483125-.2043179.6074375-.4969429.059125-.2925625-.09175-.5779375-.3668125-.6938125-.0091875-.003875-.018625-.0075-.0280625-.01075l-3.8941875-1.354c-.562-.1954375-.9396875-.7265-.9396875-1.3215625v-11.26625c.150125-.101875.2893125-.221125.4131875-.357375zm6.3965625-13.433125h4.5246875c.003 0 .00475.0000625.00525.000125.002625.002625.0055.009125.0056875.01075 0 0-.000875.00175-.003875.0050625l-2.8865625 3.175625h-2.307125c.210875-.6755625.0765625-1.458125-.384625-2.0876875zm-6.178125 27.2643125 2.10375.7314375h-8.076375l2.10375-.7314375c.938875-.3264375 1.5696875-1.2135625 1.5696875-2.2075625v-10.893625c.0206875.003375.0415625.0056875.062375.0084375.011.0014375.022.0030625.033.004375.024875.0029375.0498125.00525.07475.0073125.0075.000625.015.00125.0225.0018125.057125.00425.1145.0071875.1721875.0071875.05775 0 .1151875-.0029375.1724375-.00725.00725-.0005625.0145625-.001125.0218125-.00175.0251875-.002125.0503125-.0044375.075375-.007375.0105-.0011875.0209375-.0028125.0314375-.0041875.02125-.0028125.0425625-.0051875.0636875-.0085625v10.8935c-.0000625.994125.63075 1.88125 1.569625 2.2076875zm-.9125625-14.4621875c-.113375.12475-.2448125.2253125-.388875.2998125-.0035.001625-.007125.00275-.0105625.0045-.38975.1966875-.8551875.19675-1.2449375 0-.003375-.0016875-.007-.0028125-.0104375-.0044375-.1440625-.0745-.2755-.1750625-.3889375-.2998125l-7.8831875-8.672625h1.7391875c.259 0 .469-.21.469-.469s-.21-.469-.469-.469h-2.591875l-2.8865625-3.175625c-.0020625-.00225-.003125-.00375-.0034375-.004 0-.0036875.0030625-.010125.0040625-.011375 0 0 .001875-.0005625.0064375-.0005625h19.4571875l-.4343125.4580625c-.383125-.2513125-.82125-.393875-1.2696875-.40825-.620875-.019875-1.1881875.20575-1.5956875.6356875-.4075625.429875-.602875 1.0078125-.549875 1.6273125.0069375.08075.0183125.160875.0334375.2401875-.676625-.09125-1.3596875.111375-1.835625.6133125-.0078125.00825-.0149375.016875-.022625.02525h-6.129c-.259 0-.469.21-.469.469s.21.469.469.469h5.645375c-.06375.2923125-.065875.5995625-.0084375.9024375-.0800625-.0108125-.1606875-.0179375-.2416875-.0205625-.621375-.020125-1.188125.20575-1.5956875.6356875-.7258125.7655625-.731875 1.975125-.0741875 2.8730625l-.5185.546875c-.1781875.188-.1703125.4848125.0176875.6630625.0906875.086.20675.128625.322625.128625.1241875 0 .24825-.0490625.3404375-.1463125l.518125-.5465c.383125.2513125.8211875.393875 1.26975.40825.025375.0008125.0505625.00125.07575.00125.591625 0 1.1290625-.2245625 1.52-.636875.4075625-.429875.602875-1.0078125.549875-1.6273125-.0069375-.0806875-.0183125-.16075-.033375-.2400625.1046875.014125.2095625.021625.31375.021625.5693125 0 1.119625-.2108125 1.521875-.635125.4759375-.502.641875-1.194875.5146875-1.8656875.0800625.0108125.1606875.0179375.241625.0205625.025375.0008125.0505625.00125.07575.00125.513875 0 .9866875-.169625 1.35825-.4843125h2.075zm.8269375-8.9904375c.219-.2309375.5215-.3446875.841-.3446875.367 0 .7565.1500625 1.0675.4449375.58175.5516875.67225 1.4041875.20175 1.9004375-.4705625.496125-1.3264375.45125-1.90825-.1000625-.0000625-.0000625-.0001875-.0001875-.00025-.00025-.58175-.551625-.67225-1.404125-.20175-1.900375zm-.241875 4.4815625c-.2206875.23275-.5338125.354125-.884875.3435-.37075-.011875-.73425-.1695-1.0235625-.4438125-.5818125-.551625-.6723125-1.404125-.20175-1.900375.211375-.2229375.5085-.34425.840625-.34425.01475 0 .0295.00025.04425.0006875.370625.011875.7340625.1694375 1.0233125.4435625.0000625.0000625.0001875.0001875.00025.00025.28925.2743125.466.628875.497625.9985.029875.3488125-.0751875.669125-.295875.9019375zm2.2980625-6.0604375c-.029875-.3488125.0751875-.669125.295875-.9019375.211375-.222875.5084375-.34425.840625-.34425.014625 0 .0294375.00025.04425.0006875.37075.0119375.73425.1695 1.0235.4438125.58175.5515625.67225 1.404125.20175 1.900375-.2206875.23275-.5356875.354125-.884875.3435-.3706875-.0118125-.7341875-.1694375-1.0234375-.44375-.2893125-.27425-.466-.628875-.4976875-.9984375z" fill="#5d5d5d"/></svg>