<?xml version="1.0" encoding="UTF-8"?>
<svg width="24px" height="24px" viewBox="0 0 24 24" version="1.1" xmlns="http://www.w3.org/2000/svg" xmlns:xlink="http://www.w3.org/1999/xlink">
    <!-- Generator: Sketch 60 (88103) - https://sketch.com -->
    <title>Cate/icon/24/beauty</title>
    <desc>Created with Sketch.</desc>
    <g id="Cate/icon/24/beauty" stroke="none" stroke-width="1" fill="none" fill-rule="evenodd">
        <path d="M16.0664062,20.9648438 C16.7929688,20.8476562 17.4375,20.546875 18,20.0625 C18.546875,19.609375 18.9375,19.0585938 19.171875,18.4101562 C19.40625,17.7617188 19.4804688,17.09375 19.3945312,16.40625 C19.3085938,15.71875 19.0625,15.09375 18.65625,14.53125 C19.28125,14.21875 19.796875,13.7890625 20.203125,13.2421875 C20.609375,12.6953125 20.8632812,12.0859375 20.9648438,11.4140625 C21.0664062,10.7421875 20.9960938,10.0859375 20.7539062,9.4453125 C20.5117188,8.8046875 20.1445312,8.26953125 19.6523438,7.83984375 C19.1601562,7.41015625 18.6015625,7.11328125 17.9765625,6.94921875 C17.3515625,6.78515625 16.71875,6.765625 16.078125,6.890625 C16.03125,6.1875 15.8242188,5.53515625 15.4570312,4.93359375 C15.0898438,4.33203125 14.6015625,3.859375 13.9921875,3.515625 C13.3828125,3.171875 12.71875,3 12,3 C11.28125,3 10.6171875,3.171875 10.0078125,3.515625 C9.3984375,3.859375 8.91015625,4.33203125 8.54296875,4.93359375 C8.17578125,5.53515625 7.96875,6.1875 7.921875,6.890625 C7.28125,6.765625 6.6484375,6.78515625 6.0234375,6.94921875 C5.3984375,7.11328125 4.83984375,7.41015625 4.34765625,7.83984375 C3.85546875,8.26953125 3.48828125,8.80078125 3.24609375,9.43359375 C3.00390625,10.0664062 2.93359375,10.71875 3.03515625,11.390625 C3.13671875,12.0625 3.38671875,12.671875 3.78515625,13.21875 C4.18359375,13.765625 4.6875,14.1953125 5.296875,14.5078125 C4.890625,15.0703125 4.64453125,15.6953125 4.55859375,16.3828125 C4.47265625,17.0703125 4.55078125,17.7382812 4.79296875,18.3867188 C5.03515625,19.0351562 5.4296875,19.5859375 5.9765625,20.0390625 C6.5390625,20.5234375 7.18359375,20.8242188 7.91015625,20.9414062 C8.63671875,21.0585938 9.34375,20.9921875 10.03125,20.7421875 C10.71875,20.4921875 11.3046875,20.0859375 11.7890625,19.5234375 C11.8203125,19.4765625 11.859375,19.40625 11.90625,19.3125 L11.9765625,19.1484375 L12.046875,19.3125 C12.09375,19.421875 12.140625,19.5 12.1875,19.546875 C12.671875,20.109375 13.2578125,20.515625 13.9453125,20.765625 C14.6328125,21.015625 15.3398438,21.0820312 16.0664062,20.9648438 Z M12.2578125,10.8984375 C12.5859375,9.8203125 12.75,9.18359375 12.75,8.98828125 C12.75,8.79296875 12.6757812,8.62109375 12.5273438,8.47265625 C12.3789062,8.32421875 12.203125,8.25 12,8.25 C11.796875,8.25 11.6210938,8.32421875 11.4726562,8.47265625 C11.3242188,8.62109375 11.25,8.7890625 11.25,8.9765625 C11.25,9.1640625 11.3828125,9.78125 11.6484375,10.828125 L9.46875,7.546875 C9.40625,7.328125 9.375,7.1875 9.375,7.125 C9.375,6.640625 9.4921875,6.19921875 9.7265625,5.80078125 C9.9609375,5.40234375 10.2773438,5.0859375 10.6757812,4.8515625 C11.0742188,4.6171875 11.515625,4.5 12,4.5 C12.484375,4.5 12.9257812,4.6171875 13.3242188,4.8515625 C13.7226562,5.0859375 14.0390625,5.40234375 14.2734375,5.80078125 C14.5078125,6.19921875 14.625,6.640625 14.625,7.125 C14.625,7.25 14.578125,7.4453125 14.484375,7.7109375 L12.2578125,10.8984375 Z M6.421875,13.40625 C6.359375,13.390625 6.2890625,13.3671875 6.2109375,13.3359375 L6.1875,13.3359375 C5.734375,13.1640625 5.36328125,12.8984375 5.07421875,12.5390625 C4.78515625,12.1796875 4.6015625,11.7695312 4.5234375,11.3085938 C4.4453125,10.8476562 4.4921875,10.390625 4.6640625,9.9375 C4.8515625,9.4375 5.1640625,9.03515625 5.6015625,8.73046875 C6.0390625,8.42578125 6.515625,8.265625 7.03125,8.25 C7.390625,8.234375 7.734375,8.2890625 8.0625,8.4140625 C8.09375,8.4296875 8.15625,8.46875 8.25,8.53125 L8.34375,8.6015625 L8.3671875,8.6015625 L10.453125,11.765625 C9.5625,11.15625 9.0234375,10.8164062 8.8359375,10.7460938 C8.6484375,10.6757812 8.45703125,10.6875 8.26171875,10.78125 C8.06640625,10.875 7.93359375,11.015625 7.86328125,11.203125 C7.79296875,11.390625 7.8046875,11.5820312 7.8984375,11.7773438 C7.9921875,11.9726562 8.12890625,12.1015625 8.30859375,12.1640625 C8.48828125,12.2265625 9.125,12.2890625 10.21875,12.3515625 L6.421875,13.40625 Z M17.3203125,13.4296875 L13.6640625,12.3515625 C14.8359375,12.2890625 15.5117188,12.2265625 15.6914062,12.1640625 C15.8710938,12.1015625 16.0078125,11.9726562 16.1015625,11.7773438 C16.1953125,11.5820312 16.2070312,11.390625 16.1367188,11.203125 C16.0664062,11.015625 15.9335938,10.875 15.7382812,10.78125 C15.5429688,10.6875 15.3476562,10.6796875 15.1523438,10.7578125 C14.9570312,10.8359375 14.3828125,11.1953125 13.4296875,11.8359375 L15.703125,8.5546875 C15.8125,8.4765625 15.890625,8.4296875 15.9375,8.4140625 C16.265625,8.2890625 16.609375,8.234375 16.96875,8.25 C17.484375,8.265625 17.9609375,8.42578125 18.3984375,8.73046875 C18.8359375,9.03515625 19.1484375,9.4375 19.3359375,9.9375 C19.5078125,10.390625 19.5546875,10.8476562 19.4765625,11.3085938 C19.3984375,11.7695312 19.2148438,12.1796875 18.9257812,12.5390625 C18.6367188,12.8984375 18.265625,13.1640625 17.8125,13.3359375 C17.6875,13.3828125 17.5234375,13.4140625 17.3203125,13.4296875 Z M8.16796875,19.4765625 C7.70703125,19.3984375 7.296875,19.203125 6.9375,18.890625 C6.578125,18.578125 6.31640625,18.203125 6.15234375,17.765625 C5.98828125,17.328125 5.9453125,16.8789062 6.0234375,16.4179688 C6.1015625,15.9570312 6.296875,15.546875 6.609375,15.1875 C6.703125,15.078125 6.8671875,14.953125 7.1015625,14.8125 L7.1953125,14.765625 L10.734375,13.78125 C9.75,14.46875 9.19140625,14.8867188 9.05859375,15.0351562 C8.92578125,15.1835938 8.87109375,15.3632812 8.89453125,15.5742188 C8.91796875,15.7851562 9.0078125,15.9609375 9.1640625,16.1015625 C9.3203125,16.2421875 9.5,16.3007812 9.703125,16.2773438 C9.90625,16.2539062 10.078125,16.1601562 10.21875,15.9960938 C10.359375,15.8320312 10.703125,15.125 11.25,13.875 L11.25,16.640625 C11.1875,17.078125 11.0976562,17.4765625 10.9804688,17.8359375 C10.8632812,18.1953125 10.75,18.4375 10.640625,18.5625 C10.328125,18.921875 9.953125,19.1835938 9.515625,19.3476562 C9.078125,19.5117188 8.62890625,19.5546875 8.16796875,19.4765625 Z M14.4609375,19.3710938 C14.0234375,19.2070312 13.6484375,18.9453125 13.3359375,18.5859375 C13.2421875,18.4765625 13.1367188,18.25 13.0195312,17.90625 C12.9023438,17.5625 12.8125,17.1875 12.75,16.78125 L12.75,13.875 C13.296875,15.125 13.640625,15.8320312 13.78125,15.9960938 C13.921875,16.1601562 14.09375,16.2539062 14.296875,16.2773438 C14.5,16.3007812 14.6796875,16.2421875 14.8359375,16.1015625 C14.9921875,15.9609375 15.0820312,15.7851562 15.1054688,15.5742188 C15.1289062,15.3632812 15.0742188,15.1835938 14.9414062,15.0351562 C14.8085938,14.8867188 14.2734375,14.484375 13.3359375,13.828125 L16.921875,14.859375 C17.140625,15 17.2890625,15.1171875 17.3671875,15.2109375 C17.6796875,15.5703125 17.875,15.9804688 17.953125,16.4414062 C18.03125,16.9023438 17.9882812,17.3515625 17.8242188,17.7890625 C17.6601562,18.2265625 17.3984375,18.6015625 17.0390625,18.9140625 C16.6796875,19.2265625 16.2695312,19.421875 15.8085938,19.5 C15.3476562,19.578125 14.8984375,19.5351562 14.4609375,19.3710938 Z" id="" fill="#FFFFFF" fill-rule="nonzero"></path>
    </g>
</svg>