<?xml version="1.0" encoding="UTF-8"?>
<svg width="24px" height="24px" viewBox="0 0 24 24" version="1.1" xmlns="http://www.w3.org/2000/svg" xmlns:xlink="http://www.w3.org/1999/xlink">
    <!-- Generator: Sketch 60 (88103) - https://sketch.com -->
    <title>Cate/icon/24/nightlife</title>
    <desc>Created with Sketch.</desc>
    <g id="Cate/icon/24/nightlife" stroke="none" stroke-width="1" fill="none" fill-rule="evenodd">
        <path d="M16.5,21.75 L16.5,20.25 L13.5,20.25 L13.5,16.0078125 L20.109375,7.2890625 L20.25,7.078125 L20.25,6 L10.3125,6 C10.078125,5.125 9.59375,4.40625 8.859375,3.84375 C8.125,3.28125 7.296875,3 6.375,3 C5.625,3 4.93359375,3.18359375 4.30078125,3.55078125 C3.66796875,3.91796875 3.16796875,4.41796875 2.80078125,5.05078125 C2.43359375,5.68359375 2.25,6.375 2.25,7.125 C2.25,7.875 2.43359375,8.56640625 2.80078125,9.19921875 C3.16796875,9.83203125 3.66796875,10.3320312 4.30078125,10.6992188 C4.93359375,11.0664062 5.625,11.25 6.375,11.25 C6.953125,11.25 7.5234375,11.1171875 8.0859375,10.8515625 L12,16.0078125 L12,20.25 L9,20.25 L9,21.75 L16.5,21.75 Z M6.375,9.75 C5.890625,9.75 5.44921875,9.6328125 5.05078125,9.3984375 C4.65234375,9.1640625 4.3359375,8.84765625 4.1015625,8.44921875 C3.8671875,8.05078125 3.75,7.609375 3.75,7.125 C3.75,6.640625 3.8671875,6.19921875 4.1015625,5.80078125 C4.3359375,5.40234375 4.65234375,5.0859375 5.05078125,4.8515625 C5.44921875,4.6171875 5.890625,4.5 6.375,4.5 C6.890625,4.5 7.359375,4.640625 7.78125,4.921875 C8.203125,5.203125 8.515625,5.5625 8.71875,6 L5.25,6 L5.25,7.078125 L5.390625,7.2890625 L7.1484375,9.609375 C6.8828125,9.703125 6.625,9.75 6.375,9.75 Z M12.75,14.5078125 L7.453125,7.5 L18.046875,7.5 L16.921875,9 L10.125,9 L11.25,10.5 L15.7734375,10.5 L12.75,14.5078125 Z" id="" fill="#FFFFFF" fill-rule="nonzero"></path>
    </g>
</svg>