<?xml version="1.0" encoding="UTF-8"?>
<svg width="24px" height="24px" viewBox="0 0 24 24" version="1.1" xmlns="http://www.w3.org/2000/svg" xmlns:xlink="http://www.w3.org/1999/xlink">
    <!-- Generator: Sketch 60 (88103) - https://sketch.com -->
    <title>Cate/icon/24/shopping</title>
    <desc>Created with Sketch.</desc>
    <g id="Cate/icon/24/shopping" stroke="none" stroke-width="1" fill="none" fill-rule="evenodd">
        <path d="M20.296875,21.75 L19.5,7.453125 L19.453125,6.75 L15.75,6.75 L15.75,6 C15.75,5.328125 15.5820312,4.703125 15.2460938,4.125 C14.9101562,3.546875 14.453125,3.08984375 13.875,2.75390625 C13.296875,2.41796875 12.671875,2.25 12,2.25 C11.328125,2.25 10.703125,2.41796875 10.125,2.75390625 C9.546875,3.08984375 9.08984375,3.546875 8.75390625,4.125 C8.41796875,4.703125 8.25,5.328125 8.25,6 L8.25,6.75 L4.546875,6.75 L4.5,7.453125 L3.703125,21.75 L20.296875,21.75 Z M14.25,6.75 L9.75,6.75 L9.75,6 C9.75,5.375 9.96875,4.84375 10.40625,4.40625 C10.84375,3.96875 11.375,3.75 12,3.75 C12.625,3.75 13.15625,3.96875 13.59375,4.40625 C14.03125,4.84375 14.25,5.375 14.25,6 L14.25,6.75 Z M18.703125,20.25 L5.296875,20.25 L5.953125,8.25 L8.25,8.25 L8.25,10.5 L9.75,10.5 L9.75,8.25 L14.25,8.25 L14.25,10.5 L15.75,10.5 L15.75,8.25 L18.046875,8.25 L18.703125,20.25 Z" id="ïŠ" fill="#FFFFFF" fill-rule="nonzero"></path>
    </g>
</svg>