<?xml version="1.0" encoding="UTF-8"?>
<svg width="24px" height="24px" viewBox="0 0 24 24" version="1.1" xmlns="http://www.w3.org/2000/svg" xmlns:xlink="http://www.w3.org/1999/xlink">
    <!-- Generator: Sketch 60 (88103) - https://sketch.com -->
    <title>Cate/icon/24/restaurant</title>
    <desc>Created with Sketch.</desc>
    <g id="Cate/icon/24/restaurant" stroke="none" stroke-width="1" fill="none" fill-rule="evenodd">
        <path d="M9,21 L9,12.6796875 C9.859375,12.5078125 10.5703125,12.09375 11.1328125,11.4375 C11.7109375,10.75 12,9.9375 12,9 C12,8.453125 11.9140625,7.890625 11.7421875,7.3125 C11.5703125,6.734375 11.328125,6.1875 11.015625,5.671875 C10.671875,5.109375 10.2890625,4.6640625 9.8671875,4.3359375 C9.3515625,3.9453125 8.8125,3.75 8.25,3.75 C7.6875,3.75 7.1484375,3.9453125 6.6328125,4.3359375 C6.2109375,4.6640625 5.828125,5.109375 5.484375,5.671875 C5.171875,6.1875 4.9296875,6.734375 4.7578125,7.3125 C4.5859375,7.890625 4.5,8.453125 4.5,9 C4.5,9.9375 4.7890625,10.75 5.3671875,11.4375 C5.9296875,12.09375 6.640625,12.5078125 7.5,12.6796875 L7.5,21 L9,21 Z M17.25,21 L17.25,11.8828125 C17.90625,11.7109375 18.4453125,11.359375 18.8671875,10.828125 C19.2890625,10.296875 19.5,9.6875 19.5,9 L19.5,3.75 L18,3.75 L18,9 C18,9.421875 17.8554688,9.77734375 17.5664062,10.0664062 C17.2773438,10.3554688 16.921875,10.5 16.5,10.5 C16.078125,10.5 15.7226562,10.3554688 15.4335938,10.0664062 C15.1445312,9.77734375 15,9.421875 15,9 L15,3.75 L13.5,3.75 L13.5,9 C13.5,9.6875 13.7109375,10.296875 14.1328125,10.828125 C14.5546875,11.359375 15.09375,11.7109375 15.75,11.8828125 L15.75,21 L17.25,21 Z M16.5,9.75 C16.703125,9.75 16.8789062,9.67578125 17.0273438,9.52734375 C17.1757812,9.37890625 17.25,9.203125 17.25,9 L17.25,3.75 L15.75,3.75 L15.75,9 C15.75,9.203125 15.8242188,9.37890625 15.9726562,9.52734375 C16.1210938,9.67578125 16.296875,9.75 16.5,9.75 Z M8.25,11.25 C7.5625,11.25 7.015625,11.0585938 6.609375,10.6757812 C6.203125,10.2929688 6,9.734375 6,9 C6,8.625 6.0703125,8.19921875 6.2109375,7.72265625 C6.3515625,7.24609375 6.5390625,6.8203125 6.7734375,6.4453125 C7.0078125,6.0703125 7.2578125,5.77734375 7.5234375,5.56640625 C7.7890625,5.35546875 8.03125,5.25 8.25,5.25 C8.46875,5.25 8.7109375,5.35546875 8.9765625,5.56640625 C9.2421875,5.77734375 9.4921875,6.0703125 9.7265625,6.4453125 C9.9609375,6.8203125 10.1484375,7.24609375 10.2890625,7.72265625 C10.4296875,8.19921875 10.5,8.625 10.5,9 C10.5,9.734375 10.296875,10.2929688 9.890625,10.6757812 C9.484375,11.0585938 8.9375,11.25 8.25,11.25 Z" id="" fill="#FFFFFF" fill-rule="nonzero"></path>
    </g>
</svg>