<?xml version="1.0" encoding="UTF-8"?>
<svg width="24px" height="24px" viewBox="0 0 24 24" version="1.1" xmlns="http://www.w3.org/2000/svg" xmlns:xlink="http://www.w3.org/1999/xlink">
    <!-- Generator: Sketch 60 (88103) - https://sketch.com -->
    <title>Cate/icon/24/Hotel</title>
    <desc>Created with Sketch.</desc>
    <g id="Cate/icon/24/Hotel" stroke="none" stroke-width="1" fill="none" fill-rule="evenodd">
        <path d="M5.25,20.25 L5.25,18.75 L18.75,18.75 L18.75,20.25 L22.5,20.25 L22.5,13.5 C22.5,13.171875 22.4335938,12.8671875 22.3007812,12.5859375 C22.1679688,12.3046875 21.984375,12.0546875 21.75,11.8359375 L21.75,6.75 C21.75,6.140625 21.5273438,5.61328125 21.0820312,5.16796875 C20.6367188,4.72265625 20.109375,4.5 19.5,4.5 L4.5,4.5 C3.890625,4.5 3.36328125,4.72265625 2.91796875,5.16796875 C2.47265625,5.61328125 2.25,6.140625 2.25,6.75 L2.25,11.8359375 C2.015625,12.0546875 1.83203125,12.3046875 1.69921875,12.5859375 C1.56640625,12.8671875 1.5,13.171875 1.5,13.5 L1.5,20.25 L5.25,20.25 Z M5.25,11.25 L3.75,11.25 L3.75,6.75 C3.75,6.546875 3.82421875,6.37109375 3.97265625,6.22265625 C4.12109375,6.07421875 4.296875,6 4.5,6 L19.5,6 C19.703125,6 19.8789062,6.07421875 20.0273438,6.22265625 C20.1757812,6.37109375 20.25,6.546875 20.25,6.75 L20.25,11.25 L18.75,11.25 L18.75,10.5 C18.75,9.890625 18.5273438,9.36328125 18.0820312,8.91796875 C17.6367188,8.47265625 17.109375,8.25 16.5,8.25 L13.5,8.25 C12.9375,8.25 12.4375,8.4453125 12,8.8359375 C11.5625,8.4453125 11.0625,8.25 10.5,8.25 L7.5,8.25 C6.890625,8.25 6.36328125,8.47265625 5.91796875,8.91796875 C5.47265625,9.36328125 5.25,9.890625 5.25,10.5 L5.25,11.25 Z M11.25,11.25 L6.75,11.25 L6.75,10.5 C6.75,10.296875 6.82421875,10.1210938 6.97265625,9.97265625 C7.12109375,9.82421875 7.296875,9.75 7.5,9.75 L10.5,9.75 C10.703125,9.75 10.8789062,9.82421875 11.0273438,9.97265625 C11.1757812,10.1210938 11.25,10.296875 11.25,10.5 L11.25,11.25 Z M17.25,11.25 L12.75,11.25 L12.75,10.5 C12.75,10.296875 12.8242188,10.1210938 12.9726562,9.97265625 C13.1210938,9.82421875 13.296875,9.75 13.5,9.75 L16.5,9.75 C16.703125,9.75 16.8789062,9.82421875 17.0273438,9.97265625 C17.1757812,10.1210938 17.25,10.296875 17.25,10.5 L17.25,11.25 Z M3.75,18.75 L3,18.75 L3,13.5 C3,13.296875 3.07421875,13.1210938 3.22265625,12.9726562 C3.37109375,12.8242188 3.546875,12.75 3.75,12.75 L20.25,12.75 C20.453125,12.75 20.6289062,12.8242188 20.7773438,12.9726562 C20.9257812,13.1210938 21,13.296875 21,13.5 L21,18.75 L20.25,18.75 L20.25,17.25 L3.75,17.25 L3.75,18.75 Z" id="" fill="#FFFFFF" fill-rule="nonzero"></path>
    </g>
</svg>