<?xml version="1.0" encoding="UTF-8"?>
<svg width="24px" height="24px" viewBox="0 0 24 24" version="1.1" xmlns="http://www.w3.org/2000/svg" xmlns:xlink="http://www.w3.org/1999/xlink">
    <!-- Generator: Sketch 60 (88103) - https://sketch.com -->
    <title>Cate/icon/24/car</title>
    <desc>Created with Sketch.</desc>
    <g id="Cate/icon/24/car" stroke="none" stroke-width="1" fill="none" fill-rule="evenodd">
        <path d="M6,19.5 L6.2578125,18.75 L17.7421875,18.75 L18,19.5 L20.25,19.5 C20.453125,19.5 20.6289062,19.4257812 20.7773438,19.2773438 C20.9257812,19.1289062 21,18.953125 21,18.75 L21,12.75 C21,12.6875 20.9921875,12.6171875 20.9765625,12.5390625 L20.5078125,10.9453125 L21.984375,10.453125 L21.515625,9.046875 L20.0625,9.5390625 L19.03125,6.09375 C18.890625,5.625 18.6210938,5.2421875 18.2226562,4.9453125 C17.8242188,4.6484375 17.375,4.5 16.875,4.5 L7.125,4.5 C6.625,4.5 6.17578125,4.6484375 5.77734375,4.9453125 C5.37890625,5.2421875 5.109375,5.625 4.96875,6.09375 L3.9375,9.5390625 L2.484375,9.046875 L2.015625,10.453125 L3.4921875,10.9453125 L3.0234375,12.5390625 C3.0078125,12.6171875 3,12.6875 3,12.75 L3,18.75 C3,18.953125 3.07421875,19.1289062 3.22265625,19.2773438 C3.37109375,19.4257812 3.546875,19.5 3.75,19.5 L6,19.5 Z M18.5625,9.75 L5.4375,9.75 L6.3984375,6.5390625 C6.4453125,6.3828125 6.53515625,6.25390625 6.66796875,6.15234375 C6.80078125,6.05078125 6.953125,6 7.125,6 L16.875,6 C17.046875,6 17.1992188,6.05078125 17.3320312,6.15234375 C17.4648438,6.25390625 17.5546875,6.3828125 17.6015625,6.5390625 L18.5625,9.75 Z M19.5,17.25 L4.5,17.25 L4.5,12.890625 L4.9921875,11.25 L19.0078125,11.25 L19.5,12.890625 L19.5,17.25 Z M6.375,14.25 C6.6875,14.25 6.953125,14.140625 7.171875,13.921875 C7.390625,13.703125 7.5,13.4375 7.5,13.125 C7.5,12.8125 7.390625,12.546875 7.171875,12.328125 C6.953125,12.109375 6.6875,12 6.375,12 C6.0625,12 5.796875,12.109375 5.578125,12.328125 C5.359375,12.546875 5.25,12.8125 5.25,13.125 C5.25,13.4375 5.359375,13.703125 5.578125,13.921875 C5.796875,14.140625 6.0625,14.25 6.375,14.25 Z M17.625,14.25 C17.9375,14.25 18.203125,14.140625 18.421875,13.921875 C18.640625,13.703125 18.75,13.4375 18.75,13.125 C18.75,12.8125 18.640625,12.546875 18.421875,12.328125 C18.203125,12.109375 17.9375,12 17.625,12 C17.3125,12 17.046875,12.109375 16.828125,12.328125 C16.609375,12.546875 16.5,12.8125 16.5,13.125 C16.5,13.4375 16.609375,13.703125 16.828125,13.921875 C17.046875,14.140625 17.3125,14.25 17.625,14.25 Z M9.6796875,16.5 L10.0078125,15.75 L13.9921875,15.75 L14.3203125,16.5 L15.9375,16.5 L15,14.25 L9,14.25 L8.0625,16.5 L9.6796875,16.5 Z" id="" fill="#FFFFFF" fill-rule="nonzero"></path>
    </g>
</svg>