<?xml version="1.0" encoding="UTF-8"?>
<svg width="24px" height="24px" viewBox="0 0 24 24" version="1.1" xmlns="http://www.w3.org/2000/svg" xmlns:xlink="http://www.w3.org/1999/xlink">
    <!-- Generator: Sketch 60 (88103) - https://sketch.com -->
    <title>Cate/icon/24/Fitness</title>
    <desc>Created with Sketch.</desc>
    <g id="Cate/icon/24/Fitness" stroke="none" stroke-width="1" fill="none" fill-rule="evenodd">
        <path d="M8.02734375,21.375 C8.64453125,21.375 9.171875,21.15625 9.609375,20.71875 C9.875,20.453125 10.0625,20.125 10.171875,19.734375 C10.546875,19.8125 10.9179688,19.8007812 11.2851562,19.6992188 C11.6523438,19.5976562 11.96875,19.4140625 12.234375,19.1484375 C12.671875,18.7109375 12.890625,18.1835938 12.890625,17.5664062 C12.890625,16.9492188 12.671875,16.421875 12.234375,15.984375 L11.6015625,15.3515625 L15.3515625,11.6015625 L15.984375,12.234375 C16.421875,12.671875 16.9492188,12.890625 17.5664062,12.890625 C18.1835938,12.890625 18.7109375,12.671875 19.1484375,12.234375 C19.4140625,11.96875 19.5976562,11.6523438 19.6992188,11.2851562 C19.8007812,10.9179688 19.8125,10.546875 19.734375,10.171875 C20.125,10.0625 20.453125,9.875 20.71875,9.609375 C21.15625,9.171875 21.375,8.64453125 21.375,8.02734375 C21.375,7.41015625 21.15625,6.8828125 20.71875,6.4453125 L19.6875,5.390625 L20.203125,4.875 L19.125,3.796875 L18.609375,4.3125 L17.5546875,3.28125 C17.1171875,2.84375 16.59375,2.625 15.984375,2.625 C15.6875,2.625 15.4023438,2.6796875 15.1289062,2.7890625 C14.8554688,2.8984375 14.609375,3.0625 14.390625,3.28125 C14.125,3.546875 13.9375,3.8828125 13.828125,4.2890625 L13.7578125,4.265625 C13.5859375,4.234375 13.453125,4.21875 13.359375,4.21875 C12.71875,4.21875 12.1835938,4.43359375 11.7539062,4.86328125 C11.3242188,5.29296875 11.109375,5.81640625 11.109375,6.43359375 C11.109375,7.05078125 11.328125,7.578125 11.765625,8.015625 L12.3984375,8.6484375 L8.6484375,12.3984375 L8.015625,11.765625 C7.578125,11.328125 7.0546875,11.109375 6.4453125,11.109375 C6.1484375,11.109375 5.86328125,11.1640625 5.58984375,11.2734375 C5.31640625,11.3828125 5.0703125,11.546875 4.8515625,11.765625 C4.5703125,12.046875 4.3828125,12.3710938 4.2890625,12.7382813 C4.1953125,13.1054688 4.1875,13.4765625 4.265625,13.8515625 C3.859375,13.9609375 3.53125,14.140625 3.28125,14.390625 C2.84375,14.828125 2.625,15.3554688 2.625,15.9726562 C2.625,16.5898438 2.84375,17.1171875 3.28125,17.5546875 L4.3125,18.609375 L3.796875,19.125 L4.875,20.203125 L5.390625,19.6875 L6.4453125,20.71875 C6.8828125,21.15625 7.41015625,21.375 8.02734375,21.375 Z M19.1367188,8.7421875 C18.9257812,8.7421875 18.75,8.671875 18.609375,8.53125 L15.46875,5.390625 C15.328125,5.25 15.2578125,5.07421875 15.2578125,4.86328125 C15.2578125,4.65234375 15.328125,4.4765625 15.46875,4.3359375 C15.609375,4.1953125 15.78125,4.125 15.984375,4.125 C16.1875,4.125 16.359375,4.1953125 16.5,4.3359375 L19.6640625,7.5 C19.8046875,7.640625 19.875,7.8125 19.875,8.015625 C19.875,8.21875 19.8046875,8.390625 19.6640625,8.53125 C19.5234375,8.671875 19.3476562,8.7421875 19.1367188,8.7421875 Z M17.5664062,11.3789062 C17.3710938,11.3710938 17.1953125,11.296875 17.0390625,11.15625 L17.015625,11.15625 L12.8203125,6.9609375 C12.6796875,6.8203125 12.6132813,6.65234375 12.6210938,6.45703125 C12.6289063,6.26171875 12.7070313,6.0859375 12.8554688,5.9296875 C13.0039063,5.7734375 13.171875,5.6953125 13.359375,5.6953125 C13.546875,5.6953125 13.71875,5.7734375 13.875,5.9296875 L18.0703125,10.125 C18.2109375,10.265625 18.28125,10.4414062 18.28125,10.6523438 C18.28125,10.8632812 18.2109375,11.0390625 18.0703125,11.1796875 C17.9296875,11.3203125 17.7617188,11.3867188 17.5664062,11.3789062 Z M10.546875,14.296875 L9.703125,13.453125 L13.453125,9.703125 L14.296875,10.546875 L10.546875,14.296875 Z M10.640625,18.28125 C10.4375,18.28125 10.265625,18.2109375 10.125,18.0703125 L9.609375,17.5546875 L9.515625,17.484375 L5.9296875,13.875 C5.7890625,13.734375 5.71875,13.5585938 5.71875,13.3476562 C5.71875,13.1367188 5.7890625,12.9609375 5.9296875,12.8203125 C6.0703125,12.6796875 6.2421875,12.609375 6.4453125,12.609375 C6.6328125,12.609375 6.8046875,12.6875 6.9609375,12.84375 L6.984375,12.84375 L11.1796875,17.0390625 C11.3203125,17.1796875 11.3867188,17.3476562 11.3789062,17.5429688 C11.3710938,17.7382812 11.296875,17.9101562 11.15625,18.0585938 C11.015625,18.2070312 10.84375,18.28125 10.640625,18.28125 Z M8.015625,19.875 C7.8125,19.875 7.640625,19.8046875 7.5,19.6640625 L4.3359375,16.5 C4.1953125,16.359375 4.125,16.1875 4.125,15.984375 C4.125,15.78125 4.19921875,15.6054688 4.34765625,15.4570312 C4.49609375,15.3085938 4.6640625,15.234375 4.8515625,15.234375 C5.0546875,15.234375 5.234375,15.3125 5.390625,15.46875 L8.53125,18.609375 C8.671875,18.75 8.7421875,18.9257812 8.7421875,19.1367188 C8.7421875,19.3476562 8.671875,19.5234375 8.53125,19.6640625 C8.390625,19.8046875 8.21875,19.875 8.015625,19.875 Z" id="" fill="#FFFFFF" fill-rule="nonzero"></path>
    </g>
</svg>